<svg width="1000" height="1000" viewBox="0 0 1000 1000" fill="none" xmlns="http://www.w3.org/2000/svg">
<rect width="1000" height="1000" fill="#181A1F"/>
<g clip-path="url(#clip0_4_9)">
<path fill-rule="evenodd" clip-rule="evenodd" d="M243.968 401.177C206.606 383.109 139.948 400.9 117.06 434.975C105.157 452.694 103.462 476.581 117.511 493.618C121.303 498.222 122.927 499.415 124.799 491.531C127.919 478.34 133.512 467.453 141.596 459.032C160.881 438.902 189.138 429.613 214.714 430.588C224.596 430.971 233.732 433.433 239.474 439.635C254.795 456.187 239.623 479.911 226.641 490.611C216.959 498.55 203.808 503.802 187.239 506.43C192.478 487.77 200.268 470.217 208.976 453.448C212.917 445.836 214.541 443.238 206.053 441.287C192.803 438.225 172.184 441.045 167.271 452.583L166.148 456.101C159.987 472.411 154.743 490.232 150.599 509.625C145.658 509.842 140.768 510.034 135.804 509.923C130.584 509.816 129.76 509.574 130.058 513.526C130.686 521.896 133.178 534.925 142.389 534.546C143.135 534.521 144.661 534.086 147.059 533.247C146.155 540.888 145.82 548.595 146.058 556.294C146.255 563.067 146.957 569.895 148.131 576.799C157.612 619.597 202.564 593.922 221.755 577.723C231.762 569.273 238.724 561.282 242.543 553.722C246.361 546.161 248.206 539.747 248.033 534.521C247.928 531.541 247.309 528.61 246.208 525.878C243.139 518.348 234.98 513.041 221.653 509.897C236.503 501.012 248.355 490.747 257.291 478.991C278.107 451.604 273.488 415.42 243.987 401.147L243.968 401.177ZM224.302 535.875C224.749 550.693 200.119 567.675 188.663 568.161C185.245 568.302 182.749 566.917 181.226 563.94C175.359 553.104 179.629 532.847 183.373 522.283C196.077 515.779 223.729 516.295 224.325 535.879L224.302 535.875ZM435.265 445.653C431.89 444.898 428.455 444.507 425.01 444.486C419.413 444.489 414.206 445.591 409.386 447.791C401.824 451.097 396.208 455.62 392.687 461.417C389.144 467.159 387.35 472.79 387.35 478.293C387.345 479.891 387.477 481.543 387.747 483.246C388.947 490.59 393.614 497.14 401.675 502.993C403.668 504.458 408.986 508.33 412.754 512.691C426.332 528.43 395.16 540.019 390.541 517.837C389.893 514.723 389.595 511.201 389.595 507.461C391.216 501.097 387.597 499.445 385.376 502.993C381.707 508.871 378.265 514.425 374.372 519.191C370.479 523.906 367.111 526.287 364.211 526.287C362.563 526.287 361.719 524.635 361.719 521.329C361.724 519.43 361.99 517.002 362.516 514.046C364.91 500.395 373.92 472.547 383.331 445.951L413.727 439.775C417.946 439.775 424.46 427.636 418.844 427.636L387.546 434.409C393.688 418.376 394.964 415.966 397.554 411.791C394.363 409.496 390.811 407.853 387.075 406.944C383.229 406.024 379.988 405.539 377.366 405.539C375.27 405.539 373.147 405.781 371.052 406.267C366.534 407.298 363.163 409.896 361.37 414.232C359.023 419.948 356.951 425.281 352.783 438.123L327.152 442.127C323.482 442.127 317.568 453.644 323.184 453.644L349.388 449.632C345.719 462.473 342.026 477.858 340.428 487.77C339.514 493.244 338.815 498.758 338.333 504.296C338.333 504.347 338.282 504.373 338.282 504.428C332.866 525.64 295.555 552.993 293.012 520.247C292.612 515.153 293.185 510.66 294.708 504.565C296.054 506.379 298.075 507.354 300.748 507.546C303.463 507.728 305.044 507.817 305.488 507.814C309.931 507.814 314.55 506.379 319.24 503.453C324.483 500.203 328.251 494.027 330.519 484.98C330.97 482.893 331.194 480.836 331.194 478.859C331.177 475.93 330.697 473.025 329.773 470.272C328.151 465.587 325.331 461.687 321.312 458.572C317.241 455.505 312.133 453.97 305.987 453.968C299.001 453.968 292.785 455.918 287.345 459.871C281.929 463.828 277.436 468.918 273.817 475.205C270.227 481.457 267.731 487.8 266.282 494.163C264.858 500.582 264.136 506.43 264.136 511.661C264.136 520.707 265.658 528.592 269.375 534.789C287.322 564.724 325.056 548.96 338.533 520.303C338.757 522.198 339.055 524.038 339.432 525.772C341.276 534.955 346.319 540.075 354.529 541.131H355.079C360.22 541.131 365.785 538.503 371.699 533.302C374.547 530.745 377.186 527.926 379.587 524.877C382.209 550.259 418.02 548.04 432.047 535.496C443.502 525.316 445.947 506.162 435.092 494.759C431.231 490.661 426.914 487.102 422.239 484.166C419.143 482.271 416.772 480.512 415.077 478.915C413.376 477.268 412.527 475.551 412.53 473.765L412.655 472.79C413.951 468.701 416.423 466.669 419.994 466.669C424.111 466.669 428.204 468.351 432.317 471.763C433.993 473.169 435.292 474.689 436.214 476.235C444.275 489.721 447.545 469.868 447.545 463.202C447.545 461.115 447.321 459.032 446.869 456.919C445.574 451.34 441.728 447.574 435.367 445.675L435.265 445.653ZM298.801 492.43C300.897 487.361 303.314 483.191 306.014 479.89C308.734 476.64 311.352 474.821 313.903 474.447C315.752 474.523 316.991 475.497 317.619 477.368C318.294 479.238 318.592 480.891 318.592 482.326C318.592 487.663 316.446 491.752 312.054 494.593C309.006 496.675 304.97 497.714 299.947 497.711L296.807 497.575C297.357 495.76 297.977 494.057 298.777 492.43H298.801ZM615.102 420.949C633.171 416.345 613.78 394.809 598.831 400.96C551.262 420.54 535.14 465.289 523.959 511.874C521.188 523.391 520.615 523.118 519.944 510.523C519.018 493.375 522.338 469.135 528.778 455.105C532.322 447.357 535.992 448.494 528.629 444.082C525.007 441.909 522.138 441.045 518.594 441.045C516.563 441.049 514.552 441.492 512.68 442.348C501.946 447.276 491.016 461.66 485.028 485.466C482.634 495.058 480.357 503.346 479.51 510.553C477.763 525.61 475.346 525.095 474.545 510.195C473.749 494.866 477.689 477.505 482.332 464.45C487.347 450.364 496.158 446.492 482.332 443.025C478.564 442.075 475.444 441.615 472.873 441.615C470.95 441.615 469.027 441.803 467.085 442.212C457.599 444.299 452.784 458.112 452.784 483.625L452.905 489.452C453.227 503.73 456.222 516.648 461.461 528.242C463.71 533.226 464.236 534.555 469.302 536.804C473.07 538.507 477.163 539.483 481.256 539.483C488.195 539.483 487.418 538.644 488.12 532.847C488.643 528.343 489.615 522.501 491.036 515.319C493.108 504.812 495.706 495.496 498.826 487.314L498.701 493.298C498.701 499.585 499.199 506.004 500.322 512.559C501.322 518.493 502.668 523.527 504.266 527.701C508.061 537.583 519.042 541.08 528.872 540.186C538.107 539.346 535.736 537.775 537.11 528.758C545.297 475.345 566.085 433.412 615.075 420.953L615.102 420.949Z" fill="white"/>
<path fill-rule="evenodd" clip-rule="evenodd" d="M692.248 471.435C694.096 465.046 699.81 459.113 690.376 457.354C687.083 456.732 684.611 456.434 683.037 456.404C679.823 456.303 676.616 456.799 673.555 457.869C669.136 459.466 666.393 462.367 665.22 466.618C661.923 482.548 659.003 495.79 656.558 506.46C655.285 511.765 653.904 517.039 652.418 522.279C624.789 549.581 624.566 527.505 633.749 502.047C636.698 493.819 639.988 485.739 643.607 477.833C649.522 464.965 653.587 457.302 644.157 455.513C640.436 454.806 637.493 454.023 635.072 453.967C632.881 453.891 630.69 454.064 628.533 454.483C620.645 456.08 621.096 461.468 618.149 468.296C616.752 457.136 608.491 451.369 597.286 451.097C590.022 450.909 583.586 453.047 577.919 457.515C572.255 461.932 567.585 467.729 563.943 474.77C560.301 481.866 557.927 488.366 556.879 494.325C555.784 500.288 555.258 505.08 555.184 508.679C554.909 521.329 557.652 530.998 563.296 537.881C575.497 552.75 600.355 550.288 610.488 528.293C612.16 551.421 631.202 550.399 646.774 540.373C646.029 542.566 645.279 544.79 644.479 546.932C642.658 551.86 628.934 590.808 627.16 597.171C624.463 606.814 647.999 606.086 655.412 598.338C662.822 590.59 670.137 548.742 673.803 535.986C675.478 543.461 683.814 550.855 694.069 551.098C701.231 551.264 707.648 549.283 713.236 545.113C718.833 540.919 723.516 535.439 727.286 528.672C734.55 515.754 738.071 499.04 738.393 483.979C739.142 448.064 707.122 451.037 692.248 471.435ZM586.58 534.933C567.939 530.384 581.961 468.922 604.821 472.308C622.643 474.966 600.881 538.426 586.58 534.933ZM701.608 532.578C694.018 542.328 681.915 540.028 680.792 522.773C680.094 512.018 683.987 494.738 691.6 484.877C703.527 469.412 710.116 475.532 711.965 487.506C714.009 500.752 709.492 522.419 701.608 532.578Z" fill="white"/>
<path d="M840.712 563.94C869.287 544.159 877.678 502.984 859.452 471.968C841.227 440.955 803.284 431.849 774.71 451.629C746.135 471.41 737.745 512.589 755.97 543.601C774.196 574.614 812.134 583.724 840.712 563.94Z" fill="#FFD800"/>
<path fill-rule="evenodd" clip-rule="evenodd" d="M761.153 536.612H760.804C757.609 536.965 755.513 536.314 754.564 534.716C753.956 533.751 753.587 532.632 753.492 531.466C753.414 530.6 753.447 529.725 753.59 528.868C754.14 523.638 756.887 520.792 761.852 520.277C764.476 520.067 766.165 520.871 766.918 522.688C767.243 523.579 767.443 524.482 767.519 525.397C767.817 528.838 767.117 531.682 765.419 533.928C764.367 535.366 762.85 536.316 761.177 536.586L761.153 536.612ZM818.479 541.024C811.14 533.004 817.702 525.094 823.369 528.996C825.888 530.73 829.157 532.276 832.03 530.052C835.346 527.454 837.795 523.608 838.219 521.764C836.123 524.392 833.8 525.827 831.304 526.07C827.738 526.422 824.818 525.502 822.545 523.31C819.201 520.06 817.231 515.264 816.681 508.871C816.505 506.894 816.532 504.27 816.756 501.072C816.956 497.877 817.827 494.325 819.326 490.398C820.735 486.631 822.891 483.247 825.641 480.486C828.336 477.777 831.605 476.232 835.448 475.852C839.289 475.474 842.242 477.073 844.306 480.648C844.96 478.672 846.325 477.236 848.399 476.342C850.97 475.149 853.442 475.124 856.186 475.311C861.252 475.694 860.656 479.647 860.306 484.332C858.933 502.477 856.037 520.924 845.707 536.718C839.816 545.705 827.164 550.531 818.451 541.02L818.479 541.024ZM840.79 509.548C843.532 504.848 844.59 499.219 843.761 493.728C842.36 484.358 835.523 488.694 832.729 494.218C831.006 497.605 829.934 502.452 830.256 507.516C830.708 514.399 837.171 515.86 840.813 509.548H840.79ZM775.226 539.615C767.891 531.598 774.453 523.685 780.12 527.59C782.64 529.324 785.909 530.87 788.778 528.647C792.098 526.048 794.543 522.198 794.971 520.358C792.871 522.982 790.552 524.421 788.056 524.66C784.49 525.015 781.57 524.095 779.296 521.9C775.952 518.65 773.978 513.858 773.429 507.461C773.256 505.484 773.28 502.861 773.507 499.666C773.704 496.467 774.579 492.919 776.078 488.992C777.485 485.224 779.64 481.839 782.389 479.076C785.084 476.367 788.354 474.824 792.2 474.446C796.038 474.066 798.991 475.663 801.058 479.238C801.712 477.265 803.076 475.831 805.151 474.936C807.722 473.744 810.194 473.714 812.937 473.905C818.004 474.285 817.403 478.237 817.054 482.923C815.684 501.067 812.788 519.519 802.455 535.308C796.568 544.3 783.911 549.121 775.203 539.615H775.226ZM797.541 508.138C800.282 503.439 801.338 497.811 800.508 492.323C799.111 482.952 792.275 487.284 789.476 492.808C787.757 496.195 786.682 501.042 787.008 506.11C787.455 512.989 793.919 514.45 797.565 508.142L797.541 508.138Z" fill="#15191C"/>
</g>
<defs>
<clipPath id="clip0_4_9">
<rect width="800" height="212.967" fill="white" transform="translate(100 394)"/>
</clipPath>
</defs>
</svg>
