<svg width="12" height="18" viewBox="0 0 12 18" fill="none" xmlns="http://www.w3.org/2000/svg">
  <path d="M2.27486 13.2217V6.22617H0V4.32175H1.02582C3.15821 4.32175 3.24369 4.26476 3.24369 2.0184V0.256456L5.8035 0V4.32175H11.7352V6.22617H5.8035V13.1932C5.8035 15.4396 6.54437 16.095 7.65093 16.1235C8.84297 16.152 9.10418 15.0406 9.09943 11.4883H11.835C11.8729 16.2184 11.3315 17.9566 7.39447 17.9994C4.0368 18.0326 2.27486 16.7171 2.27486 13.2217Z" fill="#5633D0"/>
  <path d="M10.4102 10.5905C11.2233 10.5905 11.8825 9.93134 11.8825 9.11824C11.8825 8.30514 11.2233 7.646 10.4102 7.646C9.59714 7.646 8.93799 8.30514 8.93799 9.11824C8.93799 9.93134 9.59714 10.5905 10.4102 10.5905Z" fill="#FF8C6B"/>
</svg>
