<svg width="1200" height="1200" viewBox="0 0 1200 1200" fill="none" xmlns="http://www.w3.org/2000/svg">
<rect width="1200" height="1200" fill="#5633D0"/>
<path d="M220.104 614.223V554.957H200V538.815H209.039C227.908 538.815 228.649 538.341 228.649 519.312V504.353L251.272 502.176V538.815H303.73V554.957H251.272V613.987C251.272 633.016 257.793 638.554 267.622 638.791C278.144 639.074 280.465 629.608 280.465 599.501H304.669C305.015 639.596 300.223 654.318 265.4 654.697C235.713 655.028 220.104 643.856 220.104 614.223Z" fill="white"/>
<path d="M912.776 614.223V554.957H892.671V538.815H901.711C920.58 538.815 921.321 538.341 921.321 519.312V504.353L943.944 502.176V538.815H996.402V554.957H943.993V613.987C943.993 633.016 950.514 638.554 960.343 638.791C970.865 639.074 973.186 629.608 973.186 599.501H997.39C997.736 639.596 992.944 654.318 958.121 654.697C928.385 655.028 912.776 643.856 912.776 614.223Z" fill="white"/>
<path d="M328.131 538.768H352.581L352.779 560.212C360.336 545.017 374.167 536.827 388.739 536.827C412.547 536.827 421.241 555.478 420.451 591.028H395.061C395.753 569.064 390.666 554.153 379.354 554.153C366.511 554.153 359.052 566.934 359.052 591.028V652.993H328.131V538.768Z" fill="white"/>
<path d="M439.767 603.386V538.818H470.936V605.091C470.936 629.422 476.221 637.374 491.287 637.374C507.39 637.374 517.17 624.593 517.17 600.972V538.818H548.339V652.996H523.443V630.842C515.638 646.038 500.079 654.937 480.42 654.937C450.536 654.937 439.767 640.972 439.767 603.386Z" fill="white"/>
<path d="M570.712 603.386V538.818H601.881V605.091C601.881 629.422 607.165 637.374 622.231 637.374C638.334 637.374 648.115 624.593 648.115 600.972V538.818H679.282V652.996H654.387V630.842C646.583 646.038 631.024 654.937 611.365 654.937C581.529 654.937 570.712 640.972 570.712 603.386Z" fill="white"/>
<path d="M703.635 538.766H728.283L728.53 558.79C736.828 543.121 752.14 537.109 770.516 537.109C803.957 537.109 820.553 554.956 820.553 596.139C820.553 637.086 803.71 654.932 772.788 654.932C756.438 654.932 742.361 651.334 734.557 638.79V699.381L703.635 699.997V538.766ZM788.348 596.139C788.348 566.032 779.061 553.725 760.686 553.725C742.311 553.725 733.272 566.032 733.272 596.139C733.272 626.246 742.311 637.843 760.686 637.843C779.061 637.843 788.348 626.246 788.348 596.139Z" fill="white"/>
<path d="M841.794 538.77H872.715V652.994H841.794V538.77Z" fill="white"/>
<path d="M857.008 528.497C865.219 528.497 871.876 522.118 871.876 514.249C871.876 506.379 865.219 500 857.008 500C848.797 500 842.139 506.379 842.139 514.249C842.139 522.118 848.797 528.497 857.008 528.497Z" fill="#FF8C6B"/>
</svg>
