<svg width="237" height="267" viewBox="0 0 237 267" fill="none" xmlns="http://www.w3.org/2000/svg">
  <path d="M5.64 213.96V200.76L44.88 144.6H64.44V199.32H75V213.96H64.44V231H47.64V213.96H5.64ZM48.72 162.6L24.12 199.32H48.72V162.6ZM85.6959 186.12C85.6959 172.28 88.1759 161.44 93.1359 153.6C98.1759 145.76 106.496 141.84 118.096 141.84C129.696 141.84 137.976 145.76 142.936 153.6C147.976 161.44 150.496 172.28 150.496 186.12C150.496 200.04 147.976 210.96 142.936 218.88C137.976 226.8 129.696 230.76 118.096 230.76C106.496 230.76 98.1759 226.8 93.1359 218.88C88.1759 210.96 85.6959 200.04 85.6959 186.12ZM133.936 186.12C133.936 180.2 133.536 175.24 132.736 171.24C132.016 167.16 130.496 163.84 128.176 161.28C125.936 158.72 122.576 157.44 118.096 157.44C113.616 157.44 110.216 158.72 107.896 161.28C105.656 163.84 104.136 167.16 103.336 171.24C102.616 175.24 102.256 180.2 102.256 186.12C102.256 192.2 102.616 197.32 103.336 201.48C104.056 205.56 105.576 208.88 107.896 211.44C110.216 213.92 113.616 215.16 118.096 215.16C122.576 215.16 125.976 213.92 128.296 211.44C130.616 208.88 132.136 205.56 132.856 201.48C133.576 197.32 133.936 192.2 133.936 186.12ZM162.554 213.96V200.76L201.794 144.6H221.354V199.32H231.914V213.96H221.354V231H204.554V213.96H162.554ZM205.634 162.6L181.034 199.32H205.634V162.6Z" fill="#202020"/>
  <path d="M35 213L63 57L117 42L208 204L35 213Z" fill="url(#paint0_linear_2429_29905)"/>
  <path d="M11.1493 65.7827C13.8608 55.6147 38.2641 40.0802 50.1267 33.5839C55.6348 30.4336 78.5121 23.8396 90.3748 21.7212C102.238 19.6029 152.096 16.5025 154.772 25.9579C157.589 35.9084 134.013 55.191 98.4249 65.7827C62.8368 76.3744 7.75998 78.4927 11.1493 65.7827Z" fill="#BEBEBE"/>
  <path d="M49.1787 34.7789C48.1619 10.7145 64.2895 1.87399 72.4804 0.461763C93.1551 -2.92758 106.233 13.1718 110.187 21.6451C88.8344 44.6927 60.6179 40.0041 49.1787 34.7789Z" fill="#BEBEBE"/>
  <path d="M110.187 21.6452C88.8344 44.6928 60.6179 40.0042 49.1787 34.7789C49.0556 31.8643 49.1839 29.173 49.5192 26.6911C61.4192 30.0804 71.167 30.0506 78.3659 28.8094C93.9505 26.2545 99.9729 21.1835 105.63 14.4048C107.687 17.0108 109.214 19.5591 110.187 21.6452Z" fill="#A5A5A5"/>
  <circle cx="78.3641" cy="21.6073" r="2.96567" fill="#9B9B9B"/>
  <ellipse cx="92.7697" cy="15.2522" rx="2.96567" ry="2.54201" transform="rotate(-24.3589 92.7697 15.2522)" fill="#9B9B9B"/>
  <ellipse cx="61.7964" cy="22.4871" rx="2.96567" ry="2.54201" transform="rotate(9.53889 61.7964 22.4871)" fill="#9B9B9B"/>
  <path d="M51.25 35.5879C54.7806 37.2826 65.1463 40.1635 78.3647 38.1299" stroke="#EBEBEB"/>
  <path d="M77.94 18.6416C76.8102 18.7828 74.7201 19.7431 75.398 22.4546C76.0759 25.1661 78.7874 24.7142 80.0584 24.1493" stroke="#EBEBEB"/>
  <path d="M59.2969 21.184C60.5679 20.1955 63.7878 18.387 64.8046 22.4542" stroke="#EBEBEB"/>
  <defs>
    <linearGradient id="paint0_linear_2429_29905" x1="101" y1="57" x2="121.5" y2="213" gradientUnits="userSpaceOnUse">
      <stop stop-color="#F3F3F3"/>
      <stop offset="1" stop-color="white" stop-opacity="0"/>
    </linearGradient>
  </defs>
</svg>
