<svg width="250" height="250" viewBox="0 0 250 250" fill="none" xmlns="http://www.w3.org/2000/svg">
<rect width="250" height="250" fill="#162331"/>
<g filter="url(#filter0_d_5404_4373)">
<path d="M201.475 119.591C200.117 119.623 198.919 118.417 198.952 117.085C198.919 115.752 200.117 114.547 201.475 114.547C202.834 114.515 203.999 115.721 203.999 117.085C203.999 118.417 202.834 119.623 201.475 119.591ZM201.475 115.118C200.408 115.118 199.567 115.974 199.567 117.053C199.567 118.132 200.408 119.02 201.475 119.02C202.543 119.02 203.384 118.163 203.384 117.053C203.384 115.974 202.543 115.118 201.475 115.118ZM202.77 118.322H202.058L201.443 117.529H201.12V118.322H200.472V115.816H201.508C202.058 115.816 202.478 116.165 202.478 116.672C202.478 116.99 202.317 117.243 202.058 117.37L202.77 118.322ZM201.12 116.99H201.508C201.702 116.99 201.831 116.863 201.831 116.704C201.831 116.514 201.702 116.387 201.508 116.387H201.12V116.99Z" fill="white"/>
<path d="M72.4718 109H52.1465C48.7519 109 46 111.689 46 115.007V134.87C46 138.188 48.7519 140.877 52.1465 140.877H72.4718C75.8664 140.877 78.6183 138.188 78.6183 134.87V115.007C78.6183 111.689 75.8664 109 72.4718 109Z" fill="#00A4FA"/>
<path d="M73.2677 123.026C72.3625 120.323 71.8163 117.908 72.6028 114.963C72.6325 114.851 72.6029 114.74 72.5233 114.655C72.4421 114.569 72.3313 114.533 72.2127 114.553C70.2979 114.878 67.9664 115.896 66.7258 117.34C66.5588 117.488 66.3324 117.543 66.1171 117.488C65.3914 117.309 64.7001 117.19 63.9948 117.12C63.4439 117.044 62.8805 117.001 62.3093 117.001C61.7381 117.001 61.1748 117.044 60.6239 117.12C59.917 117.19 59.2272 117.309 58.5015 117.488C58.2861 117.543 58.0599 117.488 57.8929 117.34C56.6522 115.897 54.313 114.878 52.3981 114.553C52.2795 114.533 52.1687 114.57 52.0875 114.655C52.0064 114.74 51.9768 114.849 52.008 114.963C52.7945 117.909 52.2546 120.325 51.351 123.026C50.7127 124.933 49.6593 126.413 49.7077 129.242C49.7077 129.31 49.7498 129.366 49.8138 129.393C49.8794 129.419 49.9496 129.405 49.9995 129.359C50.6487 128.741 51.0388 128.596 51.3665 128.768C51.8909 129.042 51.2059 130.449 52.4075 131.504C52.459 131.55 52.5307 131.56 52.5947 131.532C52.6587 131.503 52.6962 131.444 52.6946 131.375C52.6697 130.69 53.0863 130.308 53.3485 130.229C53.631 130.141 54.0055 130.221 54.4331 130.656C55.3539 131.59 56.298 132.538 57.4263 133.312C58.2268 133.861 59.0602 134.325 59.9138 134.709C60.7175 135.099 61.5134 135.3 62.3078 135.305C63.1037 135.3 63.898 135.099 64.7017 134.709C65.5553 134.325 66.3886 133.861 67.1892 133.312C68.3175 132.538 69.2601 131.59 70.1824 130.656C70.61 130.221 70.9845 130.145 71.267 130.229C71.5291 130.31 71.8975 130.835 71.8725 131.52C71.8694 131.589 71.9084 131.648 71.9723 131.677C72.0363 131.705 72.1081 131.696 72.1596 131.649C73.3613 130.594 72.7245 129.042 73.2473 128.768C73.575 128.594 73.9652 128.741 74.6159 129.359C74.6659 129.407 74.7362 129.419 74.8017 129.393C74.8673 129.366 74.9078 129.31 74.9094 129.242C74.9593 126.414 73.9059 124.933 73.2661 123.026H73.2677ZM59.3957 128.858C58.6326 128.845 57.5027 128.683 56.6881 127.805C56.3261 127.415 55.7128 126.542 55.7986 124.881C55.8017 124.808 55.9 124.769 55.9656 124.816C56.1856 124.969 56.6101 125.262 57.0346 125.547C57.5324 125.883 61.9987 128.888 59.3957 128.858ZM68.124 127.805C67.3094 128.683 66.1795 128.845 65.4164 128.858C62.8134 128.888 67.2797 125.883 67.7775 125.547C68.202 125.262 68.6249 124.969 68.8465 124.816C68.9137 124.769 69.0104 124.808 69.0135 124.881C69.0993 126.542 68.4845 127.415 68.124 127.805Z" fill="white"/>
<path d="M95.1077 129.231C93.9362 129.249 92.8111 128.782 91.9959 127.94C90.2793 126.22 90.2809 123.435 92.0025 121.717C92.826 120.895 93.9428 120.433 95.1077 120.431H99.3031C99.4241 120.431 99.5285 120.348 99.5583 120.232L100.895 114.868C100.935 114.711 100.816 114.56 100.654 114.56H94.8227C91.1028 114.56 86.9007 117.376 85.5834 120.855C82.8096 128.186 88.1501 135.102 95.106 135.102H100.708C100.854 135.102 100.972 134.984 100.972 134.838V129.493C100.972 129.347 100.854 129.229 100.708 129.229H95.106L95.1077 129.231Z" fill="white"/>
<path d="M117.458 129.217L109.456 129.239C109.201 129.239 109.115 128.898 109.34 128.777L110.308 128.347C110.389 128.304 110.441 128.22 110.441 128.127L110.444 114.822C110.444 114.684 110.333 114.573 110.195 114.573H104.822C104.684 114.573 104.573 114.684 104.573 114.822V134.838C104.573 134.975 104.684 135.086 104.822 135.086H116.114C116.228 135.086 116.328 135.008 116.356 134.897L117.7 129.524C117.74 129.366 117.62 129.214 117.458 129.216V129.217Z" fill="white"/>
<path d="M137.008 114.568L131.616 114.548C131.479 114.548 131.366 114.659 131.366 114.797V124.84C131.366 127.774 130.388 129.239 128.433 129.235C126.478 129.231 125.51 127.766 125.527 124.84V114.817C125.527 114.679 125.416 114.568 125.278 114.568H119.905C119.767 114.568 119.656 114.679 119.656 114.817V124.84C119.656 131.686 122.591 135.111 128.46 135.111C134.329 135.111 137.26 131.688 137.257 124.84V114.817C137.257 114.679 137.146 114.568 137.01 114.568H137.008Z" fill="white"/>
<path d="M155.286 114.551L141.183 114.596C141.046 114.596 140.935 114.707 140.935 114.845V120.22C140.935 120.357 141.046 120.468 141.183 120.468H146.378C146.651 120.468 146.741 120.833 146.5 120.96L145.514 121.313C145.433 121.356 145.382 121.441 145.382 121.534L145.339 134.862C145.339 135 145.45 135.111 145.587 135.111H150.961C151.098 135.111 151.209 135 151.209 134.862V120.67C151.209 120.533 151.32 120.422 151.458 120.422H153.947C154.061 120.422 154.161 120.344 154.189 120.233L155.528 114.859C155.567 114.702 155.448 114.55 155.286 114.551Z" fill="white"/>
<path d="M166.491 129.231C165.31 129.26 164.17 128.792 163.348 127.941C161.631 126.221 161.633 123.434 163.355 121.717C164.178 120.895 165.295 120.433 166.46 120.431H170.693C170.808 120.431 170.907 120.353 170.935 120.242L172.279 114.869C172.319 114.711 172.2 114.561 172.037 114.561H166.024C162.632 114.561 158.647 117.059 157.259 120.153C153.855 127.738 159.313 135.102 166.491 135.102H172.107C172.244 135.102 172.355 134.991 172.355 134.853V129.48C172.355 129.342 172.244 129.231 172.107 129.231H166.491Z" fill="white"/>
<path d="M181.836 114.59H176.174C176.037 114.59 175.926 114.701 175.926 114.838V134.854C175.926 134.992 176.037 135.103 176.174 135.103H181.54C181.677 135.103 181.788 134.992 181.788 134.854V128.019C181.788 127.882 181.899 127.771 182.037 127.771H188.562L190.181 127.741C190.371 127.738 190.438 127.993 190.269 128.082L189.269 128.538C189.188 128.581 189.137 128.665 189.137 128.758L189.125 134.856C189.125 134.993 189.236 135.104 189.374 135.104H194.747C194.885 135.104 194.996 134.993 194.996 134.856V114.812C194.996 114.674 194.883 114.563 194.746 114.563L189.372 114.591C189.235 114.591 189.125 114.702 189.125 114.84V121.676C189.125 121.814 189.014 121.925 188.877 121.925H182.32C182.04 121.879 181.823 121.656 181.788 121.376L181.838 114.594C181.838 114.594 181.788 120.487 181.788 120.482" fill="white"/>
</g>
<defs>
<filter id="filter0_d_5404_4373" x="29.2803" y="95.6242" width="191.438" height="65.3164" filterUnits="userSpaceOnUse" color-interpolation-filters="sRGB">
<feFlood flood-opacity="0" result="BackgroundImageFix"/>
<feColorMatrix in="SourceAlpha" type="matrix" values="0 0 0 0 0 0 0 0 0 0 0 0 0 0 0 0 0 0 127 0" result="hardAlpha"/>
<feOffset dy="3.34394"/>
<feGaussianBlur stdDeviation="8.35986"/>
<feComposite in2="hardAlpha" operator="out"/>
<feColorMatrix type="matrix" values="0 0 0 0 0 0 0 0 0 0 0 0 0 0 0 0 0 0 0.25 0"/>
<feBlend mode="normal" in2="BackgroundImageFix" result="effect1_dropShadow_5404_4373"/>
<feBlend mode="normal" in="SourceGraphic" in2="effect1_dropShadow_5404_4373" result="shape"/>
</filter>
</defs>
</svg>
