<svg width="300" height="300" viewBox="0 0 300 300" fill="none" xmlns="http://www.w3.org/2000/svg">
<rect width="300" height="300" fill="#49B3D5"/>
<path d="M50 112C116 112 182 112 250 112C250 137.08 250 162.16 250 188C184 188 118 188 50 188C50 162.92 50 137.84 50 112Z" fill="#49B3D5"/>
<path d="M178 131C177.34 134.3 176.68 137.6 176 141C184.548 141.159 184.548 141.159 193 140C193.495 142.97 193.495 142.97 194 146C194.536 145.196 195.072 144.391 195.625 143.562C198.435 140.531 199.94 140.18 204 140C204.495 140.495 204.495 140.495 205 141C209.475 141.175 213.608 140.857 218 140C218.495 142.475 218.495 142.475 219 145C219.722 144.175 220.444 143.35 221.188 142.5C224 140 224 140 226.688 139.5C229 140 229 140 231 143C230.556 148.444 230.556 148.444 228 151C224.375 150.625 224.375 150.625 221 150C220.182 151.893 219.371 153.79 218.562 155.688C218.11 156.743 217.658 157.799 217.191 158.887C216.146 161.62 215.465 164.12 215 167C211.7 167 208.4 167 205 167C205.144 166.31 205.289 165.621 205.438 164.91C206.642 158.812 207.204 153.212 207 147C206.01 148.32 205.02 149.64 204 151C201.36 150.67 198.72 150.34 196 150C193.677 155.605 191.533 161.125 190 167C186.7 167 183.4 167 180 167C180.217 166.047 180.433 165.095 180.656 164.113C180.935 162.859 181.213 161.605 181.5 160.312C181.778 159.071 182.057 157.83 182.344 156.551C182.898 153.552 183.305 151.025 183 148C180.238 145.238 177.793 145.421 174 145C172.758 150.318 171.692 155.582 171 161C172.98 160.67 174.96 160.34 177 160C176.812 161.812 176.812 161.812 176 164C171.58 167.06 168.427 168.554 163 168C160.953 165.92 160.053 164.673 159.82 161.738C160.558 155.864 161.876 150.53 164 145C162.68 145 161.36 145 160 145C160.188 143.188 160.188 143.188 161 141C161.784 140.546 162.567 140.093 163.375 139.625C166.272 138.166 166.272 138.166 167.438 134.875C167.953 133.926 168.469 132.978 169 132C172.153 131.08 174.73 131 178 131Z" fill="#F6FBFD"/>
<path d="M104 140C106.625 140.375 106.625 140.375 109 141C109.588 150.01 107.068 157.331 101.5 164.406C98.7321 167.347 97.1126 167.989 93.0626 168.375C89.807 168.315 89.1706 168.136 86.5001 166C86.0051 165.34 85.5101 164.68 85.0001 164C83.7007 164.99 83.7007 164.99 82.3751 166C78.7513 168.147 77.1169 168.64 73.0001 168C71.1251 167 71.1251 167 70.0001 165C69.3144 158.486 70.8879 153.135 73.0001 147C72.3401 147 71.6801 147 71.0001 147C71.0001 145.68 71.0001 144.36 71.0001 143C77.9301 142.01 77.9301 142.01 85.0001 141C84.6907 142.444 84.3813 143.888 84.0626 145.375C83.0176 150.563 82.4263 155.729 82.0001 161C85.2894 158.807 85.4522 158.454 86.3868 154.867C86.6027 154.062 86.8186 153.256 87.0411 152.426C87.2544 151.584 87.4678 150.742 87.6876 149.875C87.9125 149.026 88.1375 148.176 88.3692 147.301C88.9231 145.203 89.4629 143.102 90.0001 141C93.3001 141 96.6001 141 100 141C99.7113 142.423 99.4226 143.846 99.1251 145.312C98.0135 150.863 96.9958 156.428 96.0001 162C99.6629 160.317 100.898 159.194 102.813 155.562C104.211 151.993 104.211 151.993 104 148C103.34 147.67 102.68 147.34 102 147C101.875 144.625 101.875 144.625 102 142C102.66 141.34 103.32 140.68 104 140Z" fill="#F6FBFD"/>
<path d="M132.812 140.563C136.013 141.241 136.013 141.241 139 140C138.439 145.163 137.21 149.754 135.523 154.668C134.957 157.19 135.167 158.583 136 161C136.99 160.67 137.98 160.34 139 160C138.812 162.313 138.812 162.313 138 165C135.277 167.256 133.448 167.945 129.938 168.375C126.713 167.963 125.359 167.177 123 165C122.278 165.495 121.556 165.99 120.812 166.5C117.796 168.109 116.347 168.617 113 168C110.127 164.996 109.568 162.794 109.562 158.688C109.792 151.484 112.2 147.531 117.25 142.563C122.274 138.526 126.79 139.674 132.812 140.563Z" fill="#F6FBFC"/>
<path d="M158 140C157.651 141.085 157.301 142.171 156.941 143.289C156.482 144.734 156.022 146.18 155.563 147.625C155.332 148.338 155.102 149.051 154.865 149.785C153.581 153.842 152.581 157.769 152 162C152.99 161.67 153.98 161.34 155 161C155 165 155 165 153.438 166.75C150.101 168.461 147.699 168.403 144 168C142.273 166.746 142.273 166.746 141 165C140.855 162.949 140.855 162.949 141.188 160.687C141.302 159.89 141.417 159.092 141.535 158.269C142 156 142 156 143.125 152.875C144.219 149.28 143.729 146.646 143 143C144.093 142.691 145.186 142.381 146.313 142.062C153.859 139.888 153.859 139.888 158 140Z" fill="#F7FBFD"/>
<path d="M157 128C157.66 128.66 158.32 129.32 159 130C158.813 133.5 158.813 133.5 158 137C155 139 155 139 152.375 138.688C150 138 150 138 149 137C148.541 131.724 148.541 131.724 150.188 129.125C152.618 127.617 154.19 127.64 157 128Z" fill="#F7FBFD"/>
<path d="M125 145C125.99 145 126.98 145 128 145C127.526 148.699 126.737 152.24 125.687 155.812C125.464 156.582 125.241 157.352 125.012 158.145C124 160 124 160 121.894 160.762C121.269 160.84 120.644 160.919 120 161C119.653 155.332 120.474 151.954 123 147C123.66 146.34 124.32 145.68 125 145Z" fill="#56B9D8"/>
<path d="M104 152C104.33 152.66 104.66 153.32 105 154C105.66 154 106.32 154 107 154C106.34 155.98 105.68 157.96 105 160C104.01 159.67 103.02 159.34 102 159C102.66 156.69 103.32 154.38 104 152Z" fill="#DFF1F7"/>
</svg>
