<svg width="250" height="250" viewBox="0 0 250 250" fill="none" xmlns="http://www.w3.org/2000/svg">
<rect width="250" height="250" fill="#0D1220"/>
<g clip-path="url(#clip0_2902_58)">
<mask id="mask0_2902_58" style="mask-type:luminance" maskUnits="userSpaceOnUse" x="44" y="100" width="51" height="51">
<path d="M95 100H44V151H95V100Z" fill="white"/>
</mask>
<g mask="url(#mask0_2902_58)">
<path d="M69.5 148.027C81.9411 148.027 92.0267 137.941 92.0267 125.5C92.0267 113.059 81.9411 102.973 69.5 102.973C57.0589 102.973 46.9733 113.059 46.9733 125.5C46.9733 137.941 57.0589 148.027 69.5 148.027Z" fill="#0072BC"/>
<path d="M69.5663 138.933C76.7375 138.933 82.5509 133.12 82.5509 125.949C82.5509 118.778 76.7375 112.964 69.5663 112.964C62.3951 112.964 56.5817 118.778 56.5817 125.949C56.5817 133.12 62.3951 138.933 69.5663 138.933Z" fill="white"/>
<path d="M82.556 125.949H82.4234C82.4234 129.498 80.9852 132.711 78.6596 135.037C76.334 137.363 73.121 138.801 69.5714 138.801C66.0218 138.801 62.8088 137.363 60.4832 135.037C58.1576 132.711 56.7194 129.498 56.7194 125.949C56.7194 122.399 58.1576 119.186 60.4832 116.861C62.8088 114.535 66.0218 113.097 69.5714 113.097C73.121 113.097 76.334 114.535 78.6596 116.861C80.9852 119.186 82.4234 122.399 82.4234 125.949H82.6835C82.6835 118.707 76.8083 112.832 69.5663 112.832C62.3243 112.832 56.4491 118.707 56.4491 125.949C56.4491 133.191 62.3243 139.066 69.5663 139.066C76.8083 139.066 82.6835 133.191 82.6835 125.949H82.5509H82.556Z" fill="#EC2027"/>
<path d="M64.8029 115.356C58.4636 118.554 58.5146 125.485 58.5146 125.485C58.1015 132.829 64.8029 136.021 64.8029 136.021V127.107L62.9465 125.485L64.8029 124.169V115.356ZM63.3596 128.162V132.492L62.3141 132.222L60.0344 128.162V126.653H62.0081L63.3596 128.162ZM63.3596 123.409L61.6511 124.919H60.0344C60.0344 120.012 63.3596 119.12 63.3596 119.12V123.409Z" fill="#231F20"/>
<path d="M74.396 115.677V124.317L76.1912 125.888L74.396 127.163V135.7C80.5364 132.604 80.4854 125.888 80.4854 125.888C80.8832 118.773 74.396 115.677 74.396 115.677ZM75.7934 132.053V127.897L77.4509 126.438H79.0166C79.0166 131.192 75.7985 132.053 75.7985 132.053H75.7934ZM79.0115 124.75H77.1041L75.7934 123.292V119.099L76.8032 119.36L79.0115 123.292V124.75Z" fill="#231F20"/>
<path d="M73.2128 114.708H66.1799V136.664H72.866V127.193L71.1677 125.495L73.2179 124.215V114.708H73.2128ZM71.4329 128.621V135.114H68.1485V126.648H69.6938L71.4329 128.621ZM71.4329 122.94L69.6938 124.914H68.1485V116.448H71.4329V122.94Z" fill="#231F20"/>
<path d="M53.7614 118.61L54.1337 117.937C54.2612 117.707 54.3887 117.564 54.5213 117.513C54.6488 117.462 54.7763 117.473 54.9038 117.544C55.0415 117.62 55.1231 117.728 55.1537 117.865C55.1843 118.003 55.1333 118.187 55.0058 118.416L54.6335 119.089L53.7665 118.61H53.7614ZM52.1345 117.707L52.4609 117.121C52.5731 116.922 52.6853 116.799 52.8026 116.759C52.9199 116.718 53.0372 116.728 53.1647 116.799C53.2973 116.876 53.3789 116.973 53.4044 117.09C53.4299 117.212 53.384 117.376 53.2718 117.58L52.9505 118.156L52.1396 117.707H52.1345ZM54.812 120.941L56.0819 118.656C56.138 118.559 56.2247 118.35 56.3522 118.028C56.4491 117.789 56.495 117.595 56.4899 117.447C56.4899 117.212 56.4236 116.993 56.3063 116.789C56.1839 116.585 56.0156 116.427 55.7912 116.3C55.5209 116.147 55.2506 116.096 54.9905 116.141C54.7304 116.187 54.4754 116.34 54.2306 116.611C54.2714 116.371 54.2612 116.162 54.2 115.988C54.1082 115.728 53.9348 115.529 53.6798 115.392C53.3789 115.223 53.0627 115.193 52.7363 115.3C52.4099 115.407 52.1294 115.667 51.8999 116.08L50.5229 118.559L54.8069 120.935L54.812 120.941Z" fill="white"/>
<path d="M57.7802 113.423L56.9795 111.766L58.5707 112.694L57.7802 113.423ZM60.2486 113.694L61.4165 112.617L56.7449 110.256L55.5311 111.373L57.4946 116.228L58.6319 115.183L58.2596 114.428L59.5244 113.265L60.2537 113.694H60.2486Z" fill="white"/>
<path d="M62.4008 112.082L63.7421 111.603L62.8394 109.068L65.471 110.985L66.8174 110.506L65.1701 105.891L63.8288 106.37L64.7366 108.925L62.0897 106.992L60.7586 107.466L62.4008 112.082Z" fill="white"/>
<path d="M68.3627 106.548L69.9029 106.676L69.602 110.353L71.1116 110.48L71.4125 106.798L72.9527 106.926L73.0496 105.722L68.4647 105.345L68.3627 106.548Z" fill="white"/>
<path d="M77.66 110.496C77.5478 110.746 77.3948 110.904 77.201 110.98C77.0072 111.057 76.7879 111.041 76.5482 110.934C76.3085 110.827 76.1504 110.674 76.079 110.475C76.0076 110.276 76.0229 110.057 76.13 109.812L77.3489 107.084L75.9719 106.467L74.7785 109.134C74.6816 109.353 74.6102 109.624 74.5694 109.95C74.5439 110.149 74.5694 110.368 74.6357 110.598C74.702 110.827 74.804 111.026 74.9366 111.194C75.0692 111.363 75.2579 111.521 75.5027 111.664C75.7475 111.812 75.977 111.929 76.1963 112.026C76.5737 112.194 76.9154 112.291 77.2316 112.311C77.456 112.327 77.6957 112.286 77.9507 112.189C78.2057 112.092 78.425 111.944 78.6137 111.745C78.8024 111.546 78.9554 111.317 79.0727 111.052L80.2661 108.384L78.8891 107.767L77.6702 110.496H77.66Z" fill="white"/>
<path d="M79.5572 113.862L82.25 116.651L83.117 115.815L81.4748 114.112L84.1319 111.546L83.0813 110.455L79.5572 113.862Z" fill="white"/>
<path d="M85.3049 118.564L87.1358 118.391L85.7078 119.558L85.2998 118.564H85.3049ZM84.1931 120.788L84.7949 122.256L88.6352 118.697L88.0079 117.167L82.7753 117.32L83.3618 118.753L84.2033 118.666L84.8561 120.257L84.1982 120.793L84.1931 120.788Z" fill="white"/>
<path d="M55.4546 134.884C55.424 134.731 55.3577 134.583 55.2608 134.43C55.1027 134.18 54.8783 134.022 54.5927 133.956C54.3071 133.89 54.0419 133.935 53.7971 134.094C53.5625 134.241 53.4095 134.461 53.3381 134.751C53.2667 135.037 53.3228 135.328 53.5064 135.618C53.588 135.746 53.6696 135.848 53.7563 135.919C53.843 135.991 53.945 136.052 54.0623 136.088C54.1796 136.128 54.2918 136.144 54.404 136.139C54.5162 136.139 54.6131 136.118 54.6896 136.093C54.7661 136.062 54.863 136.016 54.9803 135.94L54.5264 135.226L54.2969 135.374L54.5825 135.828C54.2357 135.924 53.9603 135.807 53.7461 135.476C53.6033 135.251 53.5574 135.037 53.6135 134.823C53.6645 134.614 53.7767 134.456 53.9399 134.349C54.1286 134.226 54.3275 134.196 54.5366 134.241C54.7457 134.292 54.914 134.415 55.0364 134.614C55.1792 134.838 55.22 135.088 55.1639 135.369L55.4393 135.43C55.4801 135.221 55.4852 135.042 55.4495 134.889L55.4546 134.884Z" fill="white"/>
<path d="M55.4546 134.884L55.5005 134.874C55.4648 134.716 55.3985 134.558 55.3016 134.405C55.1384 134.145 54.8987 133.976 54.6029 133.905C54.5264 133.89 54.455 133.879 54.3785 133.874C54.1643 133.864 53.9552 133.925 53.7665 134.048C53.5217 134.201 53.3585 134.435 53.2871 134.731C53.2667 134.802 53.2565 134.879 53.2565 134.95C53.2463 135.18 53.3177 135.409 53.4605 135.634C53.5421 135.766 53.6288 135.868 53.7206 135.945C53.8124 136.021 53.9195 136.083 54.0419 136.123C54.1388 136.154 54.2408 136.174 54.3377 136.179C54.3581 136.179 54.3836 136.179 54.404 136.179C54.5213 136.179 54.6233 136.159 54.7049 136.128C54.7865 136.098 54.8885 136.047 55.0058 135.97L55.0466 135.945L54.5366 135.149L54.2255 135.348L54.5417 135.843L54.5825 135.817L54.5672 135.771C54.4856 135.797 54.404 135.807 54.3326 135.802C54.1184 135.792 53.9399 135.68 53.7869 135.44C53.6798 135.277 53.6339 135.119 53.639 134.966C53.639 134.92 53.6492 134.874 53.6594 134.828C53.7104 134.624 53.8124 134.481 53.9654 134.384C54.098 134.298 54.2357 134.262 54.3785 134.267C54.4295 134.267 54.4754 134.277 54.5264 134.287C54.7253 134.333 54.8783 134.451 55.0007 134.639C55.1027 134.802 55.1486 134.976 55.1435 135.165C55.1435 135.226 55.1333 135.292 55.118 135.358L55.1078 135.404L55.4801 135.491L55.4903 135.44C55.5107 135.338 55.5209 135.246 55.526 135.154C55.526 135.057 55.526 134.966 55.5056 134.879L55.4597 134.889L55.4138 134.899C55.4291 134.976 55.4393 135.057 55.4342 135.149C55.4342 135.231 55.4189 135.323 55.4036 135.42L55.4495 135.43L55.4597 135.384L55.1843 135.323L55.1741 135.369L55.22 135.379C55.2353 135.307 55.2455 135.236 55.2455 135.17C55.2506 134.961 55.1996 134.767 55.0874 134.588C54.9548 134.384 54.7763 134.252 54.557 134.196C54.5009 134.18 54.4448 134.175 54.3887 134.17C54.2255 134.165 54.0674 134.211 53.9195 134.303C53.741 134.415 53.6237 134.588 53.5727 134.808C53.5574 134.859 53.5523 134.915 53.5523 134.966C53.5472 135.144 53.6033 135.323 53.7155 135.496C53.8787 135.756 54.0929 135.899 54.3428 135.904C54.4295 135.904 54.5162 135.894 54.608 135.868L54.6692 135.848L54.3734 135.379L54.5213 135.287L54.9497 135.96L54.9905 135.935L54.965 135.894C54.8528 135.965 54.7559 136.016 54.6845 136.042C54.6131 136.067 54.5213 136.083 54.4142 136.088C54.3938 136.088 54.3734 136.088 54.353 136.088C54.2663 136.088 54.1745 136.067 54.0878 136.037C53.9756 136.001 53.8838 135.945 53.8022 135.879C53.7206 135.807 53.639 135.71 53.5625 135.588C53.4248 135.374 53.3636 135.165 53.3738 134.961C53.3738 134.894 53.384 134.828 53.4044 134.762C53.4758 134.481 53.6186 134.277 53.843 134.134C54.0215 134.022 54.2051 133.971 54.3989 133.976C54.4652 133.976 54.5315 133.986 54.6029 134.002C54.8783 134.068 55.0874 134.216 55.2404 134.456C55.3322 134.598 55.3934 134.746 55.424 134.889L55.4699 134.879L55.4546 134.884Z" fill="white"/>
<path d="M56.546 138.23L56.1125 137.755L56.852 137.511L56.546 138.225V138.23ZM55.1588 137.801L55.3475 138.01L55.8779 137.837L56.4491 138.459L56.2298 138.974L56.4236 139.183L57.3161 137.097L55.1639 137.801H55.1588Z" fill="white"/>
<path d="M56.546 138.23L56.5817 138.194L56.1992 137.776L56.7602 137.592L56.495 138.209L56.5409 138.23L56.5868 138.25L56.9336 137.434L56.0207 137.735L56.5562 138.321L56.5868 138.25L56.5409 138.23H56.546ZM55.1588 137.801L55.1231 137.832L55.3373 138.061L55.8677 137.888L56.393 138.464L56.1737 138.979L56.4389 139.27L57.4028 137.016L55.0772 137.781L55.1282 137.837L55.1639 137.806L55.1792 137.852L57.2294 137.179L56.4134 139.097L56.2961 138.964L56.5154 138.449L55.9034 137.781L55.373 137.954L55.2047 137.771L55.169 137.801H55.1588Z" fill="white"/>
<path d="M58.9073 140.53L59.2949 138.969L57.6221 140.305L57.8312 140.463L58.8614 139.637L58.5095 141.065L59.7641 140.326L59.2745 141.534L59.4887 141.693L60.2894 139.709L58.9073 140.53Z" fill="white"/>
<path d="M58.9073 140.53L58.9583 140.54L59.3765 138.842L57.5405 140.305L57.8363 140.525L58.7798 139.77L58.4381 141.167L59.6672 140.438L59.2184 141.555L59.5091 141.774L60.3863 139.591L58.8818 140.489L58.9073 140.53L58.9328 140.571L60.1874 139.826L59.4683 141.616L59.3357 141.519L59.8661 140.208L58.586 140.963L58.943 139.51L57.8312 140.402L57.7037 140.305L59.2082 139.097L58.8308 140.632L58.9328 140.571L58.9073 140.53Z" fill="white"/>
<path d="M61.0442 142.57L62.0336 143.054L62.1509 142.814L61.4012 142.447L61.7021 141.835L62.4518 142.197L62.5691 141.958L61.8194 141.59L62.0387 141.147L62.7833 141.514L62.9057 141.269L61.9163 140.785L61.0442 142.57Z" fill="white"/>
<path d="M61.0442 142.57L61.0187 142.616L62.054 143.12L62.2172 142.789L61.4675 142.427L61.7225 141.902L62.4722 142.264L62.6354 141.937L61.8857 141.57L62.0591 141.213L62.8088 141.58L62.972 141.244L61.8908 140.718L60.9779 142.595L61.0187 142.616L61.0442 142.57L61.085 142.59L61.9367 140.851L62.8394 141.29L62.7629 141.448L62.0132 141.08L61.7531 141.616L62.5028 141.983L62.4263 142.136L61.6766 141.769L61.3349 142.468L62.0846 142.835L62.0081 142.988L61.0646 142.529L61.0442 142.57Z" fill="white"/>
<path d="M64.8437 142.269C64.9151 142.31 64.961 142.366 64.9916 142.427C65.0222 142.493 65.0222 142.565 64.9967 142.646C64.9253 142.876 64.7009 142.927 64.3184 142.799L64.5224 142.136C64.6652 142.182 64.7723 142.223 64.8437 142.264V142.269ZM63.7472 143.727L64.0073 143.809L64.247 143.029L64.3031 143.049L64.5887 143.993L64.8845 144.084L64.5836 143.1C64.7723 143.115 64.9253 143.085 65.0375 143.013C65.1497 142.942 65.2262 142.84 65.267 142.718C65.318 142.559 65.2925 142.406 65.1956 142.269C65.0987 142.126 64.9457 142.024 64.7417 141.963L64.3286 141.835L63.7421 143.732L63.7472 143.727Z" fill="white"/>
<path d="M64.8437 142.269L64.8182 142.31C64.8794 142.345 64.9202 142.391 64.9457 142.447C64.961 142.478 64.9661 142.514 64.9661 142.549C64.9661 142.575 64.961 142.6 64.9508 142.631C64.9049 142.764 64.8233 142.82 64.6448 142.82C64.5581 142.82 64.4561 142.794 64.3337 142.753L64.3184 142.799L64.3643 142.815L64.5683 142.152L64.5224 142.136L64.5071 142.182C64.6499 142.228 64.7519 142.269 64.8131 142.305L64.8386 142.264L64.8641 142.223C64.7876 142.177 64.6805 142.136 64.5326 142.09L64.4867 142.075L64.2521 142.83L64.298 142.845C64.4255 142.886 64.5377 142.911 64.6346 142.917C64.8335 142.927 64.9865 142.835 65.0375 142.662C65.0477 142.626 65.0528 142.59 65.0579 142.554C65.0579 142.503 65.0528 142.458 65.0324 142.412C65.0018 142.335 64.9406 142.274 64.8641 142.228L64.8386 142.269H64.8437ZM63.7472 143.727L63.7319 143.773L64.0379 143.87L64.2776 143.09H64.2878L64.3031 143.044L64.2572 143.059L64.5479 144.028L64.961 144.156L64.6346 143.085L64.5887 143.1V143.151C64.5887 143.151 64.6244 143.151 64.6397 143.151C64.808 143.156 64.9508 143.126 65.0681 143.054C65.1905 142.978 65.2772 142.866 65.318 142.728C65.3333 142.677 65.3435 142.626 65.3435 142.575C65.3435 142.458 65.3129 142.34 65.2364 142.233C65.1293 142.08 64.9712 141.973 64.757 141.907L64.298 141.764L63.6809 143.758L63.7268 143.773L63.7421 143.727L63.788 143.743L64.3592 141.891L64.7213 142.004C64.9202 142.065 65.0579 142.162 65.1497 142.289C65.2109 142.381 65.2415 142.473 65.2364 142.57C65.2364 142.611 65.2262 142.651 65.216 142.697C65.1803 142.815 65.114 142.901 65.0069 142.968C64.9151 143.024 64.7927 143.054 64.6346 143.049C64.6193 143.049 64.5989 143.049 64.5836 143.049H64.5122L64.808 144.008L64.6244 143.952L64.3388 143.008L64.2572 142.983L64.2113 142.968L63.9716 143.748L63.7574 143.682L63.7421 143.727H63.7472Z" fill="white"/>
<path d="M67.9037 142.672C67.8017 142.61 67.6946 142.57 67.5875 142.554C67.4243 142.529 67.2815 142.554 67.154 142.641C67.0265 142.723 66.95 142.835 66.9296 142.973C66.9194 143.029 66.9245 143.09 66.9296 143.141C66.9398 143.197 66.9653 143.253 67.001 143.309C67.0367 143.365 67.0826 143.421 67.1336 143.467C67.1897 143.513 67.2662 143.569 67.3682 143.63C67.4702 143.692 67.5467 143.743 67.5926 143.789C67.6385 143.829 67.6742 143.88 67.6997 143.942C67.7252 144.003 67.7354 144.059 67.7252 144.11C67.7099 144.197 67.6691 144.268 67.5926 144.314C67.5212 144.36 67.4345 144.38 67.3376 144.365C67.1336 144.334 67.001 144.202 66.9398 143.967L66.6593 144.003C66.7001 144.191 66.7766 144.344 66.8888 144.452C67.001 144.559 67.1387 144.63 67.3019 144.656C67.4702 144.681 67.6232 144.645 67.7609 144.548C67.8986 144.452 67.9802 144.319 68.0006 144.156C68.0108 144.084 68.0108 144.018 68.0006 143.952C67.9904 143.885 67.9649 143.819 67.9292 143.758C67.8935 143.697 67.8425 143.636 67.7813 143.574C67.7201 143.518 67.6283 143.452 67.511 143.375C67.3937 143.304 67.3121 143.238 67.2662 143.187C67.2203 143.131 67.205 143.075 67.2101 143.018C67.2203 142.952 67.2611 142.896 67.3274 142.865C67.3937 142.83 67.4753 142.82 67.5722 142.835C67.6589 142.85 67.7252 142.876 67.766 142.911C67.8068 142.947 67.8527 142.998 67.9037 143.069L68.1485 142.927C68.0924 142.82 68.0108 142.738 67.9088 142.672H67.9037Z" fill="white"/>
<path d="M67.9037 142.672L67.9292 142.631C67.8221 142.565 67.7099 142.524 67.5977 142.503C67.5671 142.503 67.5365 142.493 67.5059 142.493C67.3682 142.493 67.2407 142.524 67.1285 142.595C66.9908 142.682 66.9041 142.809 66.8837 142.962C66.8837 142.983 66.8786 143.003 66.8786 143.024C66.8786 143.064 66.8786 143.105 66.8888 143.146C66.9041 143.207 66.9296 143.268 66.9653 143.33C67.001 143.391 67.052 143.447 67.1081 143.498C67.1642 143.549 67.2458 143.605 67.3478 143.666C67.4498 143.727 67.5212 143.778 67.562 143.814C67.6028 143.85 67.6334 143.896 67.6589 143.952C67.6793 143.993 67.6844 144.033 67.6844 144.069V144.095C67.6691 144.171 67.6334 144.222 67.5722 144.268C67.5212 144.304 67.4651 144.319 67.3988 144.314C67.3835 144.314 67.3682 144.314 67.3529 144.314C67.1693 144.283 67.0571 144.176 66.9959 143.952L66.9857 143.911L66.6083 143.957L66.6185 144.008C66.6593 144.207 66.7409 144.365 66.8633 144.482C66.9806 144.599 67.1336 144.671 67.307 144.696C67.3376 144.696 67.3682 144.701 67.3937 144.707C67.5416 144.712 67.6793 144.671 67.8017 144.584C67.9496 144.482 68.0363 144.334 68.0618 144.161C68.0618 144.135 68.0669 144.105 68.0669 144.079C68.0669 144.033 68.0669 143.987 68.0567 143.942C68.0414 143.87 68.0159 143.799 67.9751 143.732C67.9343 143.666 67.8833 143.6 67.817 143.539C67.7507 143.477 67.6589 143.411 67.5365 143.335C67.4192 143.263 67.3427 143.202 67.3019 143.156C67.2662 143.115 67.256 143.08 67.256 143.044V143.029C67.2662 142.973 67.2917 142.937 67.3478 142.911C67.3886 142.891 67.4396 142.881 67.5008 142.881C67.5212 142.881 67.5416 142.881 67.562 142.886C67.6436 142.896 67.6997 142.922 67.7354 142.947C67.7711 142.978 67.817 143.029 67.8629 143.095L67.8884 143.131L68.2148 142.942L68.1893 142.901C68.1281 142.789 68.0414 142.697 67.9292 142.631L67.9037 142.672L67.8782 142.712C67.9751 142.774 68.0465 142.85 68.1026 142.947L68.1434 142.922L68.1179 142.881L67.8731 143.024L67.8986 143.064L67.9394 143.034C67.8884 142.962 67.8425 142.906 67.7966 142.865C67.7456 142.82 67.6691 142.794 67.5773 142.779C67.5518 142.779 67.5263 142.774 67.5059 142.774C67.4294 142.774 67.3631 142.784 67.3019 142.814C67.2254 142.855 67.1693 142.922 67.1591 143.003V143.034C67.154 143.1 67.1795 143.161 67.2254 143.212C67.2764 143.273 67.3631 143.34 67.4804 143.411C67.5977 143.483 67.6844 143.549 67.7456 143.605C67.8068 143.661 67.8527 143.717 67.8833 143.773C67.919 143.834 67.9394 143.891 67.9496 143.952C67.9547 143.993 67.9598 144.028 67.9598 144.069C67.9598 144.089 67.9598 144.115 67.9547 144.14C67.9292 144.293 67.8578 144.406 67.7303 144.497C67.6232 144.574 67.511 144.605 67.3835 144.605C67.358 144.605 67.3325 144.605 67.307 144.599C67.1489 144.574 67.0265 144.513 66.9194 144.411C66.8174 144.309 66.7409 144.171 66.7052 143.987L66.6593 143.998V144.049L66.9449 144.013V143.962L66.8939 143.972C66.9602 144.222 67.1081 144.375 67.3325 144.411C67.3529 144.411 67.3733 144.411 67.3937 144.416C67.4804 144.416 67.5569 144.395 67.6283 144.355C67.715 144.299 67.766 144.217 67.7813 144.115C67.7813 144.105 67.7813 144.089 67.7813 144.079C67.7813 144.028 67.7711 143.972 67.7507 143.921C67.7201 143.855 67.6844 143.799 67.6334 143.753C67.5824 143.707 67.5059 143.651 67.4039 143.59C67.3019 143.528 67.2254 143.477 67.1744 143.432C67.1234 143.386 67.0826 143.34 67.052 143.284C67.0163 143.228 66.9959 143.177 66.9857 143.131C66.9806 143.1 66.9755 143.064 66.9755 143.029C66.9755 143.013 66.9755 142.993 66.9806 142.978C67.001 142.85 67.0673 142.753 67.1846 142.677C67.2815 142.616 67.3886 142.585 67.5059 142.59C67.5314 142.59 67.5569 142.59 67.5875 142.6C67.6895 142.616 67.7864 142.651 67.8833 142.712L67.9088 142.672H67.9037Z" fill="white"/>
<path d="M72.2285 144.37L73.1159 144.151L73.0547 143.891L72.4274 144.049L72.0143 142.376L71.7542 142.442L72.2285 144.37Z" fill="white"/>
<path d="M72.2285 144.37L72.2387 144.421L73.1771 144.186L73.0904 143.834L72.4631 143.987L72.05 142.32L71.693 142.406L72.1928 144.431L72.2387 144.421L72.2285 144.37L72.2744 144.36L71.8103 142.478L71.9786 142.437L72.3866 144.105L73.019 143.952L73.0598 144.115L72.2183 144.324L72.2285 144.37Z" fill="white"/>
<path d="M76.0586 142.646C75.9719 142.845 75.8291 142.988 75.6302 143.064C75.416 143.151 75.2018 143.156 74.9978 143.075C74.7938 142.993 74.651 142.855 74.5694 142.651C74.4878 142.452 74.4929 142.253 74.5796 142.055C74.6663 141.856 74.8142 141.713 75.0182 141.631C75.2324 141.545 75.4415 141.539 75.6455 141.621C75.8495 141.703 75.9923 141.84 76.0739 142.044C76.1504 142.238 76.1504 142.437 76.0637 142.636L76.0586 142.646ZM74.8805 143.34C75.1559 143.452 75.4364 143.452 75.7169 143.34C76.0025 143.222 76.2065 143.034 76.3238 142.758C76.4411 142.488 76.4462 142.213 76.334 141.932C76.2269 141.667 76.0382 141.483 75.7628 141.371C75.4874 141.259 75.212 141.259 74.9366 141.371C74.6561 141.483 74.4521 141.677 74.3297 141.947C74.2073 142.218 74.1971 142.488 74.3042 142.753C74.4164 143.029 74.6102 143.222 74.8856 143.34H74.8805Z" fill="white"/>
<path d="M76.0586 142.646L76.0127 142.626C75.9311 142.814 75.7985 142.942 75.6098 143.018C75.4925 143.064 75.3803 143.085 75.2681 143.085C75.1814 143.085 75.0998 143.064 75.0131 143.034C74.8193 142.957 74.6867 142.83 74.6102 142.641C74.5694 142.544 74.5541 142.447 74.5592 142.35C74.5592 142.259 74.5847 142.172 74.6255 142.08C74.7071 141.891 74.8448 141.759 75.0386 141.682C75.1559 141.636 75.263 141.616 75.3752 141.621C75.4619 141.621 75.5435 141.641 75.6302 141.677C75.824 141.754 75.9515 141.881 76.028 142.075C76.0688 142.172 76.0841 142.264 76.079 142.361C76.079 142.447 76.0535 142.539 76.0127 142.631L76.0586 142.651L76.1045 142.672C76.1504 142.57 76.1708 142.468 76.1759 142.366C76.1759 142.259 76.1606 142.146 76.1147 142.039C76.028 141.825 75.875 141.672 75.6608 141.585C75.569 141.55 75.4721 141.529 75.3752 141.524C75.2528 141.524 75.1253 141.545 74.9978 141.596C74.7836 141.682 74.6255 141.835 74.5337 142.044C74.4878 142.146 74.4623 142.248 74.4623 142.35C74.4623 142.463 74.4776 142.57 74.5235 142.677C74.6102 142.891 74.7632 143.044 74.9825 143.126C75.0743 143.161 75.1712 143.182 75.2681 143.187C75.3956 143.187 75.5231 143.166 75.6506 143.115C75.8597 143.029 76.0127 142.881 76.1045 142.667L76.0586 142.646ZM74.8805 143.34L74.8601 143.386C74.9927 143.442 75.1253 143.467 75.2579 143.472C75.416 143.477 75.5741 143.447 75.7322 143.386C76.028 143.268 76.2422 143.064 76.3646 142.779C76.4207 142.646 76.4564 142.508 76.4615 142.371C76.4666 142.218 76.436 142.065 76.3748 141.912C76.2626 141.636 76.0586 141.437 75.773 141.325C75.6404 141.274 75.5078 141.244 75.3752 141.239C75.2171 141.233 75.0641 141.264 74.906 141.325C74.6153 141.443 74.4011 141.647 74.2736 141.927C74.2073 142.065 74.1767 142.208 74.1716 142.345C74.1716 142.488 74.192 142.631 74.2481 142.769C74.3654 143.054 74.5694 143.263 74.855 143.381L74.8754 143.335L74.8958 143.289C74.6306 143.177 74.447 142.998 74.3399 142.733C74.2889 142.605 74.2634 142.478 74.2685 142.35C74.2685 142.223 74.3042 142.095 74.3654 141.968C74.4827 141.708 74.6765 141.524 74.9468 141.417C75.0896 141.361 75.2324 141.335 75.3752 141.335C75.4976 141.335 75.6149 141.366 75.7373 141.417C76.0025 141.524 76.181 141.698 76.283 141.953C76.3391 142.095 76.3646 142.233 76.3595 142.371C76.3595 142.493 76.3289 142.616 76.2728 142.738C76.1606 142.998 75.9668 143.182 75.6914 143.294C75.5435 143.355 75.4007 143.381 75.2579 143.375C75.1355 143.375 75.0131 143.345 74.8958 143.294L74.8754 143.34H74.8805Z" fill="white"/>
<path d="M77.9252 141.335C78.0731 141.58 78.2465 141.733 78.4454 141.784C78.6443 141.835 78.8432 141.805 79.0472 141.682C79.2461 141.565 79.3634 141.407 79.4093 141.208C79.4552 141.009 79.4093 140.81 79.2869 140.601L78.6443 139.53L78.4097 139.668L79.0625 140.754C79.1492 140.897 79.1747 141.029 79.1492 141.152C79.1186 141.274 79.037 141.376 78.9044 141.458C78.7667 141.539 78.6392 141.56 78.5117 141.519C78.3842 141.478 78.2771 141.381 78.1853 141.228L77.5529 140.183L77.3183 140.321L77.9252 141.33V141.335Z" fill="white"/>
<path d="M77.9252 141.336L77.8844 141.361C78.0374 141.616 78.221 141.774 78.4352 141.835C78.4913 141.851 78.5474 141.861 78.6035 141.861C78.7616 141.866 78.9197 141.82 79.0727 141.728C79.2818 141.606 79.4093 141.432 79.4603 141.223C79.4705 141.177 79.4756 141.132 79.4756 141.086C79.4807 140.917 79.4297 140.749 79.3277 140.581L78.6596 139.469L78.3434 139.658L79.0217 140.785C79.0829 140.892 79.1135 140.989 79.1084 141.075C79.1084 141.101 79.1084 141.121 79.0982 141.147C79.0727 141.254 79.0013 141.346 78.8738 141.422C78.782 141.478 78.7004 141.499 78.6188 141.499C78.5882 141.499 78.5525 141.494 78.5219 141.483C78.4097 141.448 78.3128 141.361 78.221 141.213L77.5631 140.127L77.2469 140.316L77.8793 141.366L77.9201 141.341L77.9609 141.315L77.3795 140.351L77.5274 140.259L78.1343 141.264C78.2312 141.427 78.3485 141.534 78.4913 141.58C78.5321 141.591 78.5729 141.601 78.6137 141.601C78.7157 141.601 78.8228 141.575 78.9248 141.509C79.0676 141.422 79.1594 141.31 79.1951 141.172C79.2002 141.142 79.2053 141.116 79.2053 141.086C79.2053 140.973 79.1747 140.856 79.1033 140.739L78.476 139.693L78.6239 139.602L79.2461 140.632C79.3379 140.79 79.3838 140.938 79.3787 141.081C79.3787 141.121 79.3736 141.162 79.3634 141.203C79.3226 141.387 79.2104 141.529 79.0217 141.647C78.8789 141.733 78.7412 141.769 78.6035 141.764C78.5525 141.764 78.5066 141.754 78.4556 141.744C78.272 141.693 78.1088 141.555 77.966 141.315L77.9252 141.341V141.336Z" fill="white"/>
<path d="M81.1892 140.152L81.3983 139.979L80.4905 138.898L82.5815 139.107L81.2453 137.51L81.0413 137.684L81.9593 138.78L79.8632 138.566L81.1892 140.152Z" fill="white"/>
<path d="M81.1892 140.152L81.2198 140.188L81.4646 139.984L80.6078 138.954L82.6988 139.168L81.2555 137.439L80.9699 137.679L81.842 138.719L79.7459 138.505L81.1841 140.224L81.2198 140.188L81.1892 140.152L81.2249 140.122L79.9754 138.627L82.0715 138.842L81.1076 137.689L81.2402 137.582L82.4693 139.046L80.3732 138.836L81.3269 139.974L81.1586 140.117L81.1892 140.152Z" fill="white"/>
<path d="M83.3465 135.302C83.2088 135.379 83.0864 135.486 82.9691 135.618C82.7753 135.843 82.6886 136.103 82.709 136.394C82.7294 136.684 82.8518 136.929 83.0711 137.118C83.2802 137.296 83.5352 137.383 83.831 137.368C84.1268 137.352 84.3869 137.215 84.6113 136.955C84.7082 136.842 84.7796 136.73 84.8255 136.628C84.8714 136.526 84.8969 136.409 84.8969 136.286C84.8969 136.164 84.8816 136.047 84.8459 135.94C84.8102 135.833 84.7643 135.746 84.7184 135.68C84.6674 135.613 84.5909 135.537 84.4889 135.445L83.9381 136.088L84.1421 136.266L84.4889 135.858C84.6827 136.159 84.6521 136.46 84.3971 136.761C84.2237 136.96 84.0299 137.067 83.8157 137.082C83.5964 137.092 83.4128 137.036 83.2649 136.909C83.0966 136.761 83.0048 136.582 82.9895 136.368C82.9742 136.154 83.0456 135.955 83.1986 135.782C83.372 135.578 83.6015 135.465 83.882 135.44L83.8616 135.159C83.6525 135.18 83.4791 135.231 83.3414 135.307L83.3465 135.302Z" fill="white"/>
<path d="M83.3465 135.302L83.321 135.261C83.1782 135.343 83.0507 135.45 82.9334 135.588C82.76 135.792 82.6682 136.021 82.658 136.276C82.658 136.317 82.658 136.358 82.658 136.404C82.6784 136.71 82.8059 136.965 83.0354 137.159C83.2292 137.322 83.4587 137.408 83.7137 137.419C83.7494 137.419 83.7902 137.419 83.831 137.419C84.1421 137.403 84.4175 137.255 84.647 136.99C84.749 136.873 84.8204 136.761 84.8714 136.649C84.9173 136.541 84.9428 136.424 84.9479 136.302V136.297C84.9479 136.164 84.9326 136.042 84.8969 135.929C84.8561 135.817 84.8153 135.725 84.7592 135.654C84.7082 135.583 84.6266 135.506 84.5195 135.414L84.4838 135.384L83.8718 136.103L84.1523 136.343L84.5348 135.899L84.4991 135.868L84.4583 135.894C84.545 136.026 84.5807 136.149 84.5756 136.276C84.5705 136.429 84.5042 136.582 84.3665 136.74C84.1982 136.934 84.0197 137.031 83.8157 137.041C83.7851 137.041 83.7596 137.041 83.7341 137.041C83.5658 137.036 83.423 136.98 83.3006 136.878C83.1374 136.74 83.0558 136.572 83.0405 136.373C83.0405 136.348 83.0405 136.322 83.0405 136.302C83.0456 136.128 83.1119 135.97 83.2394 135.822C83.4026 135.629 83.6168 135.521 83.8922 135.496H83.9381L83.9126 135.113H83.8616C83.6474 135.139 83.4638 135.19 83.321 135.272L83.3465 135.312L83.372 135.353C83.4995 135.282 83.6678 135.236 83.8718 135.215V135.164H83.8157L83.8361 135.445H83.8871V135.394C83.5913 135.419 83.3516 135.542 83.168 135.751C83.0303 135.914 82.9538 136.093 82.9487 136.292C82.9487 136.317 82.9487 136.348 82.9487 136.373C82.964 136.603 83.0609 136.796 83.2394 136.949C83.3771 137.067 83.5403 137.128 83.7341 137.138C83.7647 137.138 83.7953 137.138 83.8259 137.138C84.0605 137.128 84.2645 137.011 84.443 136.802C84.5909 136.633 84.6674 136.455 84.6725 136.276C84.6776 136.128 84.6317 135.98 84.5399 135.838L84.5042 135.782L84.1472 136.2L84.0146 136.088L84.5348 135.481L84.4991 135.45L84.4685 135.486C84.5705 135.572 84.647 135.649 84.6929 135.71C84.7388 135.771 84.7796 135.853 84.8153 135.955C84.851 136.057 84.8663 136.164 84.8612 136.281H84.9122L84.8612 136.276V136.292C84.8612 136.404 84.8357 136.511 84.7898 136.603C84.749 136.7 84.6776 136.807 84.5807 136.919C84.3614 137.174 84.1166 137.301 83.8361 137.317C83.8004 137.317 83.7647 137.317 83.729 137.317C83.4893 137.306 83.2853 137.23 83.1068 137.077C82.8926 136.893 82.7804 136.669 82.76 136.388C82.76 136.348 82.76 136.312 82.76 136.271C82.7702 136.037 82.8518 135.833 83.0099 135.644C83.1221 135.511 83.2445 135.414 83.372 135.338L83.3465 135.297V135.302Z" fill="white"/>
<path d="M86.2892 134.634L86.8859 133.706L86.6564 133.558L86.2076 134.262L85.6313 133.895L86.0801 133.191L85.8557 133.048L85.4069 133.752L84.9887 133.481L85.4375 132.783L85.208 132.635L84.6164 133.563L86.2892 134.634Z" fill="white"/>
<path d="M86.2892 134.634L86.3351 134.66L86.9522 133.691L86.6411 133.492L86.1923 134.196L85.7027 133.879L86.1515 133.176L85.8404 132.982L85.3916 133.68L85.055 133.466L85.5038 132.768L85.1927 132.569L84.5501 133.578L86.3045 134.7L86.3351 134.66L86.2892 134.634L86.3198 134.593L84.6827 133.548L85.2233 132.701L85.3712 132.798L84.9224 133.497L85.4222 133.818L85.871 133.114L86.0138 133.206L85.565 133.91L86.2229 134.328L86.6717 133.629L86.8145 133.721L86.2484 134.609L86.2892 134.634Z" fill="white"/>
<path d="M94.7399 125.5H94.4798C94.4798 132.4 91.685 138.643 87.1664 143.161C82.6478 147.68 76.4054 150.475 69.5051 150.475C62.6048 150.475 56.3624 147.68 51.8438 143.161C47.3201 138.638 44.5253 132.4 44.5253 125.5C44.5253 118.6 47.3201 112.362 51.8387 107.839C56.3624 103.32 62.5997 100.525 69.5 100.525C76.3952 100.525 82.6376 103.32 87.1613 107.839C91.6799 112.357 94.4747 118.6 94.4747 125.5H95C95 111.419 83.5811 100 69.5 100C55.4189 100 44 111.419 44 125.5C44 139.581 55.4189 151 69.5 151C83.5811 151 95 139.581 95 125.5H94.7399Z" fill="#ED1C24"/>
<path d="M53.9807 127.933C54.0113 129.152 53.0372 130.197 51.8387 130.228C50.5382 130.258 49.5029 129.284 49.4774 128.004C49.4519 126.831 50.4413 125.765 51.5786 125.735C52.9352 125.699 53.945 126.627 53.9807 127.933ZM50.3852 127.974C51.1451 128.448 51.8642 128.897 52.619 129.366V126.581C51.8693 127.05 51.1553 127.494 50.3852 127.974Z" fill="#231F20"/>
<path d="M50.3903 127.968C51.1553 127.489 51.8693 127.045 52.6241 126.576V129.361C51.8693 128.892 51.1553 128.443 50.3903 127.968ZM50.5994 127.968C51.242 128.371 51.8489 128.749 52.4864 129.147V126.79C51.8387 127.193 51.2369 127.576 50.5994 127.968Z" fill="#ED1C24"/>
<path d="M50.5994 127.974C51.2318 127.576 51.8387 127.198 52.4864 126.795V129.152C51.854 128.754 51.2471 128.376 50.5994 127.974Z" fill="#ED1C24"/>
<path d="M87.2735 125.73C88.4108 125.76 89.4002 126.826 89.3747 127.999C89.3492 129.284 88.3139 130.258 87.0134 130.223C85.8149 130.192 84.8357 129.147 84.8714 127.928C84.9071 126.617 85.9169 125.689 87.2735 125.73ZM86.2331 126.576V129.361C86.9879 128.892 87.7019 128.443 88.4669 127.968C87.7019 127.489 86.9879 127.045 86.2331 126.576Z" fill="#231F20"/>
<path d="M86.2331 129.366H86.2994V126.581H86.2331L86.1974 126.637C86.9471 127.106 87.6611 127.55 88.4312 128.03L88.4669 127.973L88.4312 127.917C87.6713 128.392 86.9522 128.84 86.1974 129.31L86.2331 129.366L86.2688 129.422C87.0236 128.953 87.7376 128.504 88.5026 128.03L88.5893 127.973L88.5026 127.917C87.7376 127.438 87.0236 126.994 86.2688 126.525L86.1668 126.464V126.581C86.1668 127.53 86.1668 128.417 86.1668 129.366V129.483L86.2688 129.422L86.2331 129.366ZM86.3657 126.79H86.2994C86.2994 127.591 86.2994 128.341 86.2994 129.146V129.264L86.4014 129.203C87.0338 128.805 87.6407 128.427 88.2884 128.024L88.3751 127.968L88.2884 127.912C87.656 127.514 87.0491 127.137 86.4014 126.734L86.2994 126.673V126.79H86.3657L86.33 126.846C86.9726 127.249 87.5795 127.632 88.217 128.024L88.2527 127.968L88.217 127.912C87.5744 128.315 86.9675 128.693 86.33 129.09L86.3657 129.146H86.432V126.79H86.3657Z" fill="#ED1C24"/>
<path d="M88.2527 127.974C87.6203 127.576 87.0134 127.198 86.3657 126.795V129.152C86.9981 128.754 87.605 128.376 88.2527 127.974Z" fill="#ED1C24"/>
</g>
</g>
<path d="M101.195 129V106.6H110.315C111.36 106.984 112.288 107.656 113.099 108.616C113.909 109.576 114.315 110.739 114.315 112.104C114.315 114.515 113.525 116.2 111.947 117.16V117.288C113.909 118.376 114.891 120.083 114.891 122.408C114.891 125.075 113.536 127.272 110.827 129H101.195ZM105.547 115.848H108.715C109.653 115.272 110.123 114.397 110.123 113.224C110.123 112.051 109.685 111.123 108.811 110.44H105.547V115.848ZM105.547 125.288H108.843C109.227 125.011 109.568 124.573 109.867 123.976C110.187 123.379 110.347 122.781 110.347 122.184C110.347 121.587 110.219 121.043 109.963 120.552C109.707 120.061 109.387 119.699 109.003 119.464H105.547V125.288ZM126.442 129L125.77 125.448H120.714L120.042 129H115.69L120.01 106.6H126.634L130.73 129H126.442ZM123.178 110.76L121.93 118.216L121.226 122.024H125.226L124.49 118.216L123.242 110.76H123.178ZM142.257 129L136.273 116.616L136.113 116.68L136.305 120.456V129H132.273V106.6H135.505L141.393 119.464L141.553 119.4L141.201 115.464V106.6H145.233V129H142.257ZM151.601 110.44H146.769V106.6H160.785V110.44H155.953V129H151.601V110.44ZM167.857 125.288H170.545C171.014 124.776 171.345 124.264 171.537 123.752C171.75 123.219 171.857 122.44 171.857 121.416V106.6H176.241V119.816C176.241 120.904 176.209 121.757 176.145 122.376C176.102 122.973 175.974 123.709 175.761 124.584C175.398 126.141 174.395 127.613 172.753 129H165.649C164.006 127.656 163.003 126.184 162.641 124.584C162.321 123.283 162.161 121.693 162.161 119.816V106.6H166.545V121.416C166.545 122.44 166.641 123.219 166.833 123.752C167.046 124.264 167.387 124.776 167.857 125.288ZM178.845 129V106.6H183.229V125.288H189.885V129H178.845ZM201.279 129L200.607 125.448H195.551L194.879 129H190.527L194.847 106.6H201.471L205.567 129H201.279ZM198.015 110.76L196.767 118.216L196.063 122.024H200.063L199.327 118.216L198.079 110.76H198.015Z" fill="white"/>
<path d="M108.349 145.376C107.127 145.376 106.198 145.025 105.56 144.323C104.922 143.617 104.603 142.551 104.603 141.124C104.603 138.189 105.913 136.722 108.533 136.722C108.916 136.722 109.288 136.763 109.648 136.845C110.008 136.922 110.299 137.02 110.523 137.139C110.746 137.257 110.858 137.371 110.858 137.481C110.858 137.549 110.833 137.64 110.782 137.754C110.737 137.868 110.682 137.968 110.618 138.055C110.555 138.141 110.498 138.185 110.447 138.185C110.425 138.185 110.361 138.155 110.256 138.096C110.019 137.968 109.771 137.861 109.511 137.774C109.251 137.688 108.934 137.645 108.561 137.645C107.531 137.645 106.797 137.929 106.36 138.499C105.922 139.064 105.703 139.903 105.703 141.015C105.703 142.063 105.906 142.899 106.312 143.523C106.722 144.143 107.428 144.453 108.431 144.453C108.736 144.453 109.03 144.44 109.313 144.412C109.6 144.38 109.828 144.342 109.996 144.296V141.842H108.574C108.488 141.842 108.424 141.815 108.383 141.76C108.347 141.701 108.328 141.607 108.328 141.48V141.281C108.328 141.154 108.347 141.063 108.383 141.008C108.424 140.949 108.488 140.919 108.574 140.919H110.7C110.828 140.919 110.921 140.949 110.981 141.008C111.04 141.063 111.07 141.154 111.07 141.281V144.501C111.07 144.815 110.814 145.041 110.304 145.178C109.793 145.31 109.142 145.376 108.349 145.376ZM112.751 145.328C112.569 145.328 112.437 145.312 112.355 145.28C112.273 145.244 112.232 145.191 112.232 145.123C112.232 145.091 112.243 145.037 112.266 144.959L115.144 136.968C115.189 136.836 115.351 136.77 115.629 136.77H115.985C116.263 136.77 116.424 136.836 116.47 136.968L119.348 144.966C119.371 145.016 119.382 145.068 119.382 145.123C119.382 145.26 119.211 145.328 118.869 145.328H118.767C118.484 145.328 118.32 145.264 118.275 145.137L117.564 143.141H113.995L113.298 145.137C113.257 145.264 113.095 145.328 112.813 145.328H112.751ZM117.236 142.218L115.964 138.602C115.928 138.501 115.898 138.387 115.875 138.26C115.852 138.132 115.832 138.009 115.814 137.891H115.786C115.732 138.196 115.67 138.433 115.602 138.602L114.33 142.218H117.236ZM121.118 145.328C120.945 145.328 120.82 145.308 120.742 145.267C120.665 145.221 120.626 145.153 120.626 145.062V137.043C120.626 136.861 120.79 136.77 121.118 136.77H121.549C121.818 136.77 121.989 136.845 122.062 136.995L124.359 140.981L124.673 141.746L124.987 141.049L127.291 136.995C127.369 136.845 127.537 136.77 127.797 136.77H128.2C128.524 136.77 128.686 136.861 128.686 137.043V145.062C128.686 145.239 128.524 145.328 128.2 145.328H128.118C127.945 145.328 127.82 145.308 127.742 145.267C127.665 145.221 127.626 145.153 127.626 145.062V138.52L127.606 138.574L125.186 142.778C125.154 142.833 125.117 142.874 125.076 142.901C125.035 142.924 124.983 142.936 124.919 142.936H124.434C124.311 142.936 124.22 142.883 124.16 142.778L121.686 138.451V145.062C121.686 145.239 121.524 145.328 121.2 145.328H121.118ZM131.318 145.308C131.19 145.308 131.097 145.278 131.037 145.219C130.978 145.16 130.948 145.068 130.948 144.945V137.166C130.948 137.038 130.978 136.947 131.037 136.893C131.097 136.833 131.19 136.804 131.318 136.804H135.556C135.642 136.804 135.704 136.831 135.74 136.886C135.781 136.94 135.802 137.034 135.802 137.166V137.364C135.802 137.487 135.781 137.579 135.74 137.638C135.704 137.697 135.642 137.727 135.556 137.727H132.022V140.495H135.194C135.28 140.495 135.342 140.525 135.378 140.584C135.419 140.643 135.44 140.737 135.44 140.864V141.049C135.44 141.176 135.419 141.27 135.378 141.329C135.342 141.384 135.28 141.411 135.194 141.411H132.022V144.385H135.57C135.656 144.385 135.718 144.414 135.754 144.474C135.795 144.528 135.816 144.62 135.816 144.747V144.945C135.816 145.068 135.795 145.16 135.754 145.219C135.718 145.278 135.656 145.308 135.57 145.308H131.318ZM138.085 145.328C137.757 145.328 137.593 145.239 137.593 145.062V137.166C137.593 137.038 137.623 136.947 137.682 136.893C137.741 136.833 137.834 136.804 137.962 136.804H140.006C140.977 136.804 141.706 136.975 142.194 137.316C142.686 137.658 142.932 138.203 142.932 138.95C142.932 139.456 142.809 139.882 142.563 140.229C142.321 140.57 141.979 140.828 141.537 141.001V141.049C141.774 141.131 141.968 141.29 142.118 141.527C142.273 141.76 142.444 142.106 142.631 142.566L143.581 144.966C143.604 145.048 143.615 145.105 143.615 145.137C143.615 145.264 143.445 145.328 143.103 145.328H142.98C142.857 145.328 142.75 145.312 142.658 145.28C142.572 145.244 142.517 145.196 142.494 145.137L141.571 142.751C141.453 142.441 141.314 142.2 141.154 142.026C140.995 141.853 140.806 141.732 140.587 141.664C140.368 141.596 140.093 141.562 139.76 141.562H138.666V145.062C138.666 145.239 138.504 145.328 138.181 145.328H138.085ZM140.266 140.639C140.553 140.639 140.815 140.57 141.052 140.434C141.293 140.297 141.483 140.115 141.619 139.887C141.761 139.654 141.831 139.408 141.831 139.148C141.831 138.67 141.685 138.315 141.394 138.082C141.102 137.845 140.699 137.727 140.184 137.727H138.666V140.639H140.266ZM146.808 145.376C146.361 145.376 145.944 145.328 145.557 145.232C145.174 145.132 144.866 145.014 144.634 144.877C144.406 144.736 144.292 144.608 144.292 144.494C144.292 144.43 144.317 144.346 144.367 144.241C144.422 144.136 144.484 144.043 144.552 143.961C144.62 143.879 144.675 143.838 144.716 143.838C144.752 143.838 144.832 143.874 144.955 143.947C145.238 144.093 145.518 144.214 145.796 144.31C146.074 144.405 146.411 144.453 146.808 144.453C147.118 144.453 147.393 144.394 147.635 144.275C147.876 144.157 148.063 143.991 148.195 143.776C148.332 143.558 148.401 143.307 148.401 143.024C148.401 142.724 148.319 142.475 148.154 142.279C147.995 142.079 147.799 141.922 147.567 141.808C147.339 141.689 147.006 141.543 146.569 141.37C146.095 141.188 145.719 141.019 145.441 140.864C145.167 140.705 144.932 140.475 144.736 140.174C144.545 139.873 144.449 139.474 144.449 138.978C144.449 138.545 144.561 138.157 144.784 137.815C145.008 137.469 145.324 137.2 145.735 137.009C146.145 136.817 146.616 136.722 147.15 136.722C147.391 136.722 147.667 136.756 147.977 136.824C148.287 136.888 148.551 136.977 148.77 137.091C148.993 137.205 149.105 137.33 149.105 137.467C149.105 137.526 149.08 137.608 149.029 137.713C148.984 137.813 148.929 137.904 148.865 137.986C148.802 138.068 148.751 138.109 148.715 138.109C148.674 138.109 148.592 138.075 148.469 138.007C148.264 137.898 148.061 137.811 147.861 137.747C147.66 137.679 147.416 137.645 147.129 137.645C146.66 137.645 146.279 137.765 145.987 138.007C145.7 138.248 145.557 138.586 145.557 139.019C145.557 139.278 145.621 139.493 145.748 139.661C145.876 139.83 146.038 139.964 146.234 140.065C146.43 140.165 146.703 140.281 147.054 140.413C147.077 140.418 147.129 140.436 147.211 140.468C147.694 140.655 148.088 140.837 148.394 141.015C148.704 141.188 148.966 141.439 149.18 141.767C149.399 142.095 149.508 142.514 149.508 143.024C149.508 143.503 149.396 143.92 149.173 144.275C148.954 144.631 148.64 144.904 148.23 145.096C147.824 145.283 147.35 145.376 146.808 145.376ZM157.321 145.308C157.194 145.308 157.1 145.278 157.041 145.219C156.982 145.16 156.952 145.068 156.952 144.945V137.043C156.952 136.861 157.116 136.77 157.445 136.77H157.54C157.864 136.77 158.026 136.861 158.026 137.043V144.385H161.368C161.455 144.385 161.516 144.414 161.553 144.474C161.589 144.528 161.608 144.62 161.608 144.747V144.945C161.608 145.068 161.589 145.16 161.553 145.219C161.516 145.278 161.455 145.308 161.368 145.308H157.321ZM166.092 145.376C164.875 145.376 163.948 145.007 163.31 144.269C162.672 143.53 162.353 142.45 162.353 141.028C162.353 139.611 162.669 138.54 163.303 137.815C163.941 137.086 164.871 136.722 166.092 136.722C167.318 136.722 168.25 137.086 168.888 137.815C169.526 138.54 169.845 139.611 169.845 141.028C169.845 142.45 169.526 143.53 168.888 144.269C168.25 145.007 167.318 145.376 166.092 145.376ZM166.092 144.453C166.949 144.453 167.605 144.162 168.061 143.578C168.516 142.99 168.744 142.14 168.744 141.028C168.744 139.916 168.516 139.076 168.061 138.506C167.61 137.932 166.953 137.645 166.092 137.645C165.235 137.645 164.581 137.932 164.13 138.506C163.679 139.076 163.453 139.916 163.453 141.028C163.453 142.145 163.679 142.995 164.13 143.578C164.581 144.162 165.235 144.453 166.092 144.453ZM174.869 145.376C174.163 145.376 173.561 145.267 173.065 145.048C172.568 144.825 172.192 144.503 171.937 144.084C171.681 143.665 171.554 143.163 171.554 142.58V137.043C171.554 136.861 171.716 136.77 172.039 136.77H172.135C172.459 136.77 172.62 136.861 172.62 137.043V142.621C172.62 142.977 172.718 143.293 172.914 143.571C173.11 143.849 173.379 144.066 173.721 144.221C174.063 144.376 174.445 144.453 174.869 144.453C175.298 144.453 175.683 144.376 176.025 144.221C176.366 144.061 176.633 143.843 176.824 143.565C177.02 143.287 177.118 142.972 177.118 142.621V137.043C177.118 136.861 177.28 136.77 177.604 136.77H177.706C178.025 136.77 178.185 136.861 178.185 137.043V142.58C178.185 143.163 178.057 143.665 177.802 144.084C177.547 144.503 177.171 144.825 176.674 145.048C176.177 145.267 175.576 145.376 174.869 145.376ZM180.782 145.328C180.609 145.328 180.484 145.308 180.406 145.267C180.329 145.221 180.29 145.153 180.29 145.062V137.043C180.29 136.861 180.454 136.77 180.782 136.77H181.035C181.163 136.77 181.263 136.788 181.336 136.824C181.414 136.861 181.482 136.92 181.541 137.002L185.424 142.86L185.786 143.544V137.043C185.786 136.861 185.946 136.77 186.265 136.77H186.361C186.68 136.77 186.839 136.861 186.839 137.043V145.062C186.839 145.153 186.8 145.221 186.723 145.267C186.645 145.308 186.525 145.328 186.361 145.328H186.114C186 145.328 185.909 145.315 185.841 145.287C185.773 145.26 185.72 145.217 185.684 145.157L181.678 139.114L181.35 138.485V145.062C181.35 145.239 181.188 145.328 180.864 145.328H180.782ZM192.376 145.376C191.155 145.376 190.225 145.025 189.587 144.323C188.949 143.617 188.63 142.551 188.63 141.124C188.63 138.189 189.94 136.722 192.561 136.722C192.944 136.722 193.315 136.763 193.675 136.845C194.035 136.922 194.327 137.02 194.55 137.139C194.773 137.257 194.885 137.371 194.885 137.481C194.885 137.549 194.86 137.64 194.81 137.754C194.764 137.868 194.709 137.968 194.646 138.055C194.582 138.141 194.525 138.185 194.475 138.185C194.452 138.185 194.388 138.155 194.283 138.096C194.046 137.968 193.798 137.861 193.538 137.774C193.278 137.688 192.962 137.645 192.588 137.645C191.558 137.645 190.824 137.929 190.387 138.499C189.949 139.064 189.731 139.903 189.731 141.015C189.731 142.063 189.933 142.899 190.339 143.523C190.749 144.143 191.456 144.453 192.458 144.453C192.764 144.453 193.057 144.44 193.34 144.412C193.627 144.38 193.855 144.342 194.024 144.296V141.842H192.602C192.515 141.842 192.451 141.815 192.41 141.76C192.374 141.701 192.356 141.607 192.356 141.48V141.281C192.356 141.154 192.374 141.063 192.41 141.008C192.451 140.949 192.515 140.919 192.602 140.919H194.728C194.855 140.919 194.949 140.949 195.008 141.008C195.067 141.063 195.097 141.154 195.097 141.281V144.501C195.097 144.815 194.842 145.041 194.331 145.178C193.821 145.31 193.169 145.376 192.376 145.376ZM197.653 145.308C197.526 145.308 197.432 145.278 197.373 145.219C197.314 145.16 197.284 145.068 197.284 144.945V137.166C197.284 137.038 197.314 136.947 197.373 136.893C197.432 136.833 197.526 136.804 197.653 136.804H201.892C201.978 136.804 202.04 136.831 202.076 136.886C202.117 136.94 202.138 137.034 202.138 137.166V137.364C202.138 137.487 202.117 137.579 202.076 137.638C202.04 137.697 201.978 137.727 201.892 137.727H198.358V140.495H201.529C201.616 140.495 201.678 140.525 201.714 140.584C201.755 140.643 201.776 140.737 201.776 140.864V141.049C201.776 141.176 201.755 141.27 201.714 141.329C201.678 141.384 201.616 141.411 201.529 141.411H198.358V144.385H201.905C201.992 144.385 202.054 144.414 202.09 144.474C202.131 144.528 202.152 144.62 202.152 144.747V144.945C202.152 145.068 202.131 145.16 202.09 145.219C202.054 145.278 201.992 145.308 201.905 145.308H197.653Z" fill="white"/>
<defs>
<clipPath id="clip0_2902_58">
<rect width="51" height="51" fill="white" transform="translate(44 100)"/>
</clipPath>
</defs>
</svg>
