<svg width="500" height="500" viewBox="0 0 500 500" fill="none" xmlns="http://www.w3.org/2000/svg">
<rect width="500" height="500" fill="#E2E2E2"/>
<g clip-path="url(#clip0_6_24)">
<path d="M396.462 252.924H106.035C103.529 252.924 101.498 254.959 101.498 257.47V293.833C101.498 296.344 103.529 298.379 106.035 298.379H396.462C398.968 298.379 401 296.344 401 293.833V257.47C401 254.959 398.968 252.924 396.462 252.924Z" fill="#9976E3"/>
<path d="M151.448 263.894L146.895 286.697H142.569L134.081 272.429L131.219 286.697H126.016L130.569 263.894H134.927L143.415 278.195L146.244 263.894H151.448ZM182.376 268.129L181.4 273.08H191.97L191.157 277.185H180.555L179.514 282.462H191.937L191.059 286.697H173.433L177.986 263.894H195.19L194.312 268.129H182.376ZM232.59 281.811H221.987L219.028 286.697H213.402L228.134 263.894H233.338L238.931 286.697H233.663L232.59 281.811ZM231.711 277.804L229.793 269.008L224.427 277.804H231.711ZM285.177 270.963C285.177 273.091 284.603 274.915 283.454 276.436C282.304 277.956 280.711 279.031 278.673 279.661L282.641 286.697H277.079L273.502 280.312H269.014L267.746 286.697H262.445L266.998 263.894H276.266C279.085 263.894 281.275 264.513 282.836 265.751C284.397 266.989 285.177 268.726 285.177 270.963ZM274.315 276.11C276.071 276.11 277.432 275.708 278.396 274.905C279.361 274.101 279.844 272.95 279.844 271.452C279.844 270.366 279.475 269.551 278.738 269.008C278.001 268.465 276.949 268.194 275.583 268.194H271.421L269.827 276.11H274.315ZM326.61 274.937C327.586 275.328 328.339 275.909 328.87 276.68C329.401 277.451 329.667 278.39 329.667 279.498C329.667 281.865 328.735 283.657 326.87 284.873C325.005 286.089 322.523 286.697 319.423 286.697H307.487L312.04 263.894H323.033C325.483 263.894 327.369 264.345 328.691 265.246C330.014 266.147 330.675 267.434 330.675 269.106C330.675 270.496 330.312 271.685 329.586 272.673C328.859 273.661 327.867 274.416 326.61 274.937ZM316.463 267.868L315.39 273.243H320.756C322.144 273.243 323.222 272.966 323.992 272.413C324.762 271.859 325.146 271.061 325.146 270.018C325.146 268.585 324.03 267.868 321.797 267.868H316.463ZM319.748 282.723C321.222 282.723 322.371 282.44 323.195 281.876C324.019 281.311 324.431 280.497 324.431 279.433C324.431 277.869 323.293 277.087 321.016 277.087H314.642L313.536 282.723H319.748ZM365.506 278.781L363.945 286.697H358.676L360.27 278.553L354.416 263.894H359.685L363.75 274.058L371.913 263.894H377.344L365.506 278.781Z" fill="white"/>
<path d="M130.298 230.545H113.092L109.809 238.5H101.021L117.539 201.379H126.01L142.581 238.5H133.581L130.298 230.545ZM127.598 224.023L121.721 209.811L115.845 224.023H127.598ZM174.029 209.97V238.5H166.193V235.106C165.099 236.343 163.793 237.289 162.275 237.943C160.758 238.597 159.116 238.924 157.352 238.924C153.61 238.924 150.646 237.846 148.457 235.689C146.269 233.533 145.175 230.333 145.175 226.091V209.97H153.434V224.871C153.434 229.467 155.357 231.765 159.205 231.765C161.181 231.765 162.769 231.12 163.969 229.83C165.169 228.539 165.77 226.621 165.77 224.076V209.97H174.029ZM200.076 237.121C199.264 237.722 198.267 238.173 197.085 238.473C195.903 238.774 194.658 238.924 193.352 238.924C189.964 238.924 187.344 238.058 185.491 236.326C183.638 234.593 182.711 232.048 182.711 228.689V216.97H178.317V210.606H182.711V203.659H190.97V210.606H198.064V216.97H190.97V228.583C190.97 229.785 191.279 230.713 191.897 231.367C192.514 232.021 193.388 232.348 194.517 232.348C195.823 232.348 196.935 231.995 197.853 231.288L200.076 237.121ZM217.388 238.924C214.388 238.924 211.697 238.297 209.315 237.042C206.932 235.787 205.07 234.045 203.729 231.818C202.388 229.591 201.717 227.063 201.717 224.235C201.717 221.407 202.388 218.879 203.729 216.652C205.07 214.424 206.932 212.683 209.315 211.428C211.697 210.173 214.388 209.545 217.388 209.545C220.388 209.545 223.071 210.173 225.436 211.428C227.8 212.683 229.653 214.424 230.994 216.652C232.336 218.879 233.006 221.407 233.006 224.235C233.006 227.063 232.336 229.591 230.994 231.818C229.653 234.045 227.8 235.787 225.436 237.042C223.071 238.297 220.388 238.924 217.388 238.924ZM217.388 232.136C219.506 232.136 221.244 231.42 222.603 229.989C223.962 228.557 224.641 226.639 224.641 224.235C224.641 221.831 223.962 219.913 222.603 218.481C221.244 217.049 219.506 216.333 217.388 216.333C215.271 216.333 213.524 217.049 212.147 218.481C210.77 219.913 210.082 221.831 210.082 224.235C210.082 226.639 210.77 228.557 212.147 229.989C213.524 231.42 215.271 232.136 217.388 232.136ZM270.119 201.379C273.401 201.379 276.251 201.927 278.669 203.023C281.087 204.119 282.949 205.674 284.255 207.689C285.56 209.705 286.213 212.091 286.213 214.848C286.213 217.571 285.56 219.948 284.255 221.981C282.949 224.014 281.087 225.569 278.669 226.648C276.251 227.726 273.401 228.265 270.119 228.265H262.654V238.5H254.077V201.379H270.119ZM269.642 221.265C272.219 221.265 274.178 220.708 275.519 219.595C276.86 218.481 277.531 216.899 277.531 214.848C277.531 212.763 276.86 211.163 275.519 210.049C274.178 208.936 272.219 208.379 269.642 208.379H262.654V221.265H269.642ZM302.943 209.545C307.355 209.545 310.743 210.597 313.108 212.701C315.473 214.804 316.655 217.977 316.655 222.22V238.5H308.926V234.947C307.373 237.598 304.479 238.924 300.243 238.924C298.055 238.924 296.158 238.553 294.552 237.811C292.946 237.068 291.719 236.043 290.872 234.735C290.025 233.427 289.602 231.942 289.602 230.28C289.602 227.629 290.599 225.543 292.593 224.023C294.587 222.503 297.667 221.742 301.831 221.742H308.396C308.396 219.939 307.849 218.552 306.755 217.58C305.661 216.607 304.02 216.121 301.831 216.121C300.314 216.121 298.822 216.36 297.358 216.837C295.893 217.314 294.649 217.96 293.625 218.773L290.661 212.992C292.214 211.896 294.075 211.048 296.246 210.447C298.417 209.846 300.649 209.545 302.943 209.545ZM302.308 233.356C303.72 233.356 304.973 233.029 306.067 232.375C307.161 231.721 307.937 230.758 308.396 229.485V226.568H302.731C299.343 226.568 297.649 227.682 297.649 229.909C297.649 230.97 298.064 231.809 298.893 232.428C299.722 233.047 300.861 233.356 302.308 233.356ZM332.008 213.735C332.997 212.356 334.329 211.313 336.006 210.606C337.682 209.899 339.615 209.545 341.803 209.545V217.182C340.885 217.111 340.268 217.076 339.95 217.076C337.585 217.076 335.732 217.739 334.391 219.064C333.05 220.39 332.379 222.379 332.379 225.03V238.5H324.12V209.97H332.008V213.735ZM366.103 237.121C365.292 237.722 364.295 238.173 363.112 238.473C361.93 238.774 360.686 238.924 359.38 238.924C355.991 238.924 353.371 238.058 351.518 236.326C349.665 234.593 348.738 232.048 348.738 228.689V216.97H344.344V210.606H348.738V203.659H356.997V210.606H364.092V216.97H356.997V228.583C356.997 229.785 357.306 230.713 357.924 231.367C358.541 232.021 359.415 232.348 360.544 232.348C361.85 232.348 362.962 231.995 363.88 231.288L366.103 237.121ZM380.345 238.924C377.98 238.924 375.668 238.633 373.409 238.049C371.151 237.466 369.351 236.732 368.009 235.848L370.762 229.909C372.033 230.722 373.568 231.385 375.368 231.898C377.168 232.41 378.933 232.667 380.663 232.667C384.157 232.667 385.904 231.801 385.904 230.068C385.904 229.255 385.427 228.672 384.474 228.318C383.521 227.965 382.057 227.664 380.08 227.417C377.751 227.063 375.827 226.657 374.309 226.197C372.792 225.737 371.477 224.924 370.365 223.758C369.253 222.591 368.698 220.929 368.698 218.773C368.698 216.97 369.218 215.37 370.259 213.973C371.301 212.577 372.818 211.49 374.812 210.712C376.807 209.934 379.162 209.545 381.88 209.545C383.892 209.545 385.895 209.766 387.889 210.208C389.883 210.65 391.533 211.26 392.839 212.038L390.086 217.924C387.58 216.51 384.845 215.803 381.88 215.803C380.115 215.803 378.792 216.05 377.91 216.545C377.027 217.04 376.586 217.677 376.586 218.455C376.586 219.338 377.062 219.957 378.015 220.311C378.968 220.664 380.486 221 382.568 221.318C384.898 221.707 386.804 222.122 388.286 222.564C389.769 223.006 391.057 223.811 392.151 224.977C393.245 226.144 393.792 227.77 393.792 229.856C393.792 231.624 393.263 233.197 392.204 234.576C391.145 235.955 389.601 237.024 387.571 237.784C385.542 238.544 383.133 238.924 380.345 238.924Z" fill="black"/>
</g>
<defs>
<clipPath id="clip0_6_24">
<rect width="301" height="99" fill="white" transform="translate(100 201)"/>
</clipPath>
</defs>
</svg>
