<svg width="800" height="800" viewBox="0 0 800 800" fill="none" xmlns="http://www.w3.org/2000/svg">
<rect width="800" height="800" fill="#16457E"/>
<g clip-path="url(#clip0_5_20)">
<mask id="mask0_5_20" style="mask-type:alpha" maskUnits="userSpaceOnUse" x="129" y="348" width="62" height="59">
<path fill-rule="evenodd" clip-rule="evenodd" d="M129.527 348.701H190.097V406.872H129.527V348.701Z" fill="white"/>
</mask>
<g mask="url(#mask0_5_20)">
<path fill-rule="evenodd" clip-rule="evenodd" d="M180.769 366.625C179.352 366.325 177.91 366.186 176.466 366.208C175.168 366.229 173.878 366.379 172.612 366.657C173.152 363.929 173.148 361.117 172.6 358.391C174.02 358.691 175.469 358.824 176.925 358.806C178.221 358.784 179.509 358.631 180.772 358.352C180.522 359.606 180.386 360.881 180.366 362.161C180.342 363.661 180.478 365.157 180.769 366.625ZM185.552 348.701C183.145 350.899 180.045 352.138 176.82 352.192C173.596 352.299 170.47 351.119 168.001 349.02L163.489 353.68C167.557 358.743 167.666 365.904 163.821 371.015L145.684 389.711L141.568 385.468L136.957 390.22L141.074 394.464L138.254 397.371L134.138 393.127L129.526 397.88L138.256 406.872L168.333 375.86C173.336 371.732 180.306 371.761 185.281 375.927L189.793 371.274C187.798 368.744 186.729 365.547 186.78 362.268C186.833 358.985 188.011 355.817 190.097 353.349L185.552 348.701Z" fill="#ECBC3E"/>
</g>
<path fill-rule="evenodd" clip-rule="evenodd" d="M174.175 430.521C175.695 430.828 177.242 430.972 178.791 430.949C180.183 430.928 181.566 430.773 182.923 430.489C182.345 433.283 182.349 436.166 182.936 438.958C181.415 438.653 179.86 438.516 178.298 438.535C176.909 438.558 175.527 438.714 174.172 439C174.441 437.715 174.586 436.406 174.608 435.097C174.634 433.558 174.488 432.026 174.175 430.521ZM169.046 448.891C171.628 446.638 174.953 445.368 178.411 445.313C181.869 445.203 185.221 446.413 187.869 448.564L192.709 443.788C188.345 438.599 188.229 431.26 192.354 426.023L211.803 406.862L216.219 411.21L221.163 406.34L216.748 401.991L219.773 399.011L224.187 403.361L229.133 398.49L219.77 389.274L187.513 421.056C182.147 425.288 174.673 425.258 169.337 420.988L164.498 425.756C166.637 428.349 167.785 431.627 167.729 434.986C167.673 438.352 166.409 441.598 164.172 444.128L169.046 448.891Z" fill="#ECBC3E"/>
<path fill-rule="evenodd" clip-rule="evenodd" d="M620.843 365.766L615.13 371.829L609.42 365.766L615.13 359.703L620.843 365.766Z" fill="white"/>
<path fill-rule="evenodd" clip-rule="evenodd" d="M310.454 377.078C310.454 371.674 308.544 369.594 303.575 369.594H279.5V399.527H303.575C308.544 399.527 310.454 397.449 310.454 392.043V377.078ZM303.957 362.735C313.034 362.735 317.334 367.413 317.334 377.285V391.836C317.334 401.709 313.034 406.386 303.957 406.386H279.5V429.042H290.581V435.486H263.066V429.042H272.621V369.18H263.066V362.735H303.957Z" fill="white"/>
<path fill-rule="evenodd" clip-rule="evenodd" d="M343.644 408.861C338.523 409.497 336.475 410.98 336.475 419.027C336.475 427.072 338.523 429.614 345.692 429.614C354.808 429.614 359.312 427.177 365.356 422.732V406.321L343.644 408.861ZM380.923 435.541H365.356V427.707C360.745 433.319 355.625 435.964 345.589 435.964C334.018 435.964 329.511 430.883 329.511 419.027C329.511 407.167 334.018 403.886 343.44 402.933C348.458 402.403 356.343 401.769 365.356 401.345V392.134C365.356 386.84 363.307 384.722 358.188 384.722H345.488C340.367 384.722 338.319 386.84 338.319 392.134V393.723H331.354V392.769C331.354 383.028 335.862 378.37 345.282 378.37H358.391C367.814 378.37 372.32 383.028 372.32 392.769V429.4H380.923V435.541Z" fill="white"/>
<path fill-rule="evenodd" clip-rule="evenodd" d="M428.353 392.817C422.452 388.48 418.05 386.105 408.65 386.105C401.147 386.105 399.146 388.171 399.146 393.334V422.655C399.146 427.818 401.147 429.882 408.65 429.882C418.05 429.882 422.452 427.507 428.353 423.172V392.817ZM443.758 435.871H428.353V428.231C423.052 432.877 418.851 436.284 408.549 436.284C396.745 436.284 392.345 431.741 392.345 422.242V393.747C392.345 384.247 396.745 379.705 408.549 379.705C418.851 379.705 423.052 383.112 428.353 387.758V366.489H418.351V360.501H435.155V429.882H443.758V435.871Z" fill="white"/>
<path fill-rule="evenodd" clip-rule="evenodd" d="M493.137 376.662C493.137 371.258 491.249 369.178 486.34 369.178H468.966C464.055 369.178 462.167 371.258 462.167 376.662V384.041C462.167 389.549 464.338 391.315 468.966 392.459L487.284 397.135C494.649 399.005 500.88 401.085 500.88 411.997V420.934C500.88 430.809 496.631 435.486 487.662 435.486H468.398C459.429 435.486 455.18 430.809 455.18 420.934V413.557H461.979V421.559C461.979 426.964 463.867 429.041 468.776 429.041H487.284C492.193 429.041 494.081 426.964 494.081 421.559V412.828C494.081 407.32 491.91 405.555 487.284 404.41L468.966 399.734C461.601 397.863 455.37 395.784 455.37 384.871V377.285C455.37 367.411 459.619 362.735 468.588 362.735H486.716C495.685 362.735 499.936 367.411 499.936 377.285V383.937H493.137V376.662Z" fill="white"/>
<path fill-rule="evenodd" clip-rule="evenodd" d="M551.255 392.011C551.255 386.844 549.27 384.776 541.826 384.776C532.499 384.776 528.13 387.155 522.275 391.494V421.877C528.13 426.217 532.499 428.593 541.826 428.593C549.27 428.593 551.255 426.527 551.255 421.36V392.011ZM558.005 392.424V420.946C558.005 430.454 553.639 435 541.926 435C531.704 435 527.535 431.59 522.275 426.94V445.129H532.795V451.121H506.594V445.129H515.526V384.776H506.594V378.783H522.275V386.432C527.535 381.78 531.704 378.37 541.926 378.37C553.639 378.37 558.005 382.916 558.005 392.424Z" fill="white"/>
<path fill-rule="evenodd" clip-rule="evenodd" d="M597.993 435.678H572.288V429.898H581.77V368.708H572.288V362.927H588.933V429.898H597.993V435.678Z" fill="white"/>
<path fill-rule="evenodd" clip-rule="evenodd" d="M632.268 435.679H606.562V429.779H616.044V384.555H606.562V378.37H623.207V429.779H632.268V435.679Z" fill="white"/>
<path fill-rule="evenodd" clip-rule="evenodd" d="M650.06 423.186C650.06 428.389 652.077 430.47 657.124 430.47H663.684V436.922H656.921C647.639 436.922 643.196 432.344 643.196 422.77V386.973H635.122V380.73H643.196V367.202H650.06V380.73H663.684V386.973H650.06V423.186Z" fill="white"/>
</g>
<defs>
<clipPath id="clip0_5_20">
<rect width="550" height="103.293" fill="white" transform="translate(125 348)"/>
</clipPath>
</defs>
</svg>
