<svg width="259" height="80" viewBox="0 0 259 80" fill="none" xmlns="http://www.w3.org/2000/svg">
<path d="M107.966 57.8338C107.924 57.3651 107.734 57.0007 107.397 56.7408C107.065 56.4766 106.59 56.3445 105.972 56.3445C105.563 56.3445 105.222 56.3977 104.949 56.5043C104.676 56.6108 104.472 56.7578 104.335 56.9453C104.199 57.1286 104.129 57.3395 104.125 57.5781C104.116 57.7741 104.154 57.9467 104.24 58.0959C104.329 58.245 104.457 58.3771 104.623 58.4922C104.794 58.603 104.998 58.701 105.237 58.7862C105.475 58.8714 105.744 58.946 106.042 59.0099L107.167 59.2656C107.815 59.4062 108.386 59.5938 108.88 59.8281C109.379 60.0625 109.796 60.3416 110.133 60.6655C110.474 60.9893 110.732 61.3622 110.907 61.7841C111.081 62.206 111.171 62.679 111.175 63.2031C111.171 64.0298 110.962 64.7393 110.549 65.3317C110.135 65.924 109.541 66.3778 108.765 66.6932C107.994 67.0085 107.063 67.1662 105.972 67.1662C104.877 67.1662 103.922 67.0021 103.108 66.674C102.294 66.3459 101.661 65.8473 101.21 65.1783C100.758 64.5092 100.526 63.6634 100.513 62.6406H103.543C103.568 63.0625 103.681 63.4141 103.882 63.6953C104.082 63.9766 104.357 64.1896 104.706 64.3345C105.06 64.4794 105.469 64.5518 105.934 64.5518C106.36 64.5518 106.722 64.4943 107.02 64.3793C107.323 64.2642 107.555 64.1044 107.717 63.8999C107.879 63.6953 107.962 63.4609 107.966 63.1967C107.962 62.9496 107.885 62.7386 107.736 62.5639C107.587 62.3849 107.357 62.2315 107.046 62.1037C106.739 61.9716 106.347 61.8501 105.87 61.7393L104.502 61.4197C103.368 61.1598 102.475 60.7401 101.823 60.1605C101.171 59.5767 100.848 58.7884 100.852 57.7955C100.848 56.9858 101.065 56.2763 101.504 55.6669C101.943 55.0575 102.55 54.5824 103.326 54.2415C104.101 53.9006 104.985 53.7301 105.978 53.7301C106.992 53.7301 107.872 53.9027 108.618 54.2479C109.368 54.5888 109.95 55.0682 110.363 55.6861C110.777 56.304 110.987 57.0199 110.996 57.8338H107.966ZM132.863 60.4545C132.863 61.8949 132.586 63.1158 132.032 64.1172C131.478 65.1186 130.728 65.8793 129.782 66.3991C128.84 66.919 127.784 67.179 126.612 67.179C125.436 67.179 124.377 66.9169 123.435 66.3928C122.493 65.8686 121.745 65.108 121.191 64.1108C120.642 63.1094 120.367 61.8906 120.367 60.4545C120.367 59.0142 120.642 57.7933 121.191 56.7919C121.745 55.7905 122.493 55.0298 123.435 54.5099C124.377 53.9901 125.436 53.7301 126.612 53.7301C127.784 53.7301 128.84 53.9901 129.782 54.5099C130.728 55.0298 131.478 55.7905 132.032 56.7919C132.586 57.7933 132.863 59.0142 132.863 60.4545ZM129.629 60.4545C129.629 59.6023 129.507 58.8821 129.264 58.294C129.026 57.706 128.681 57.2607 128.229 56.9581C127.782 56.6555 127.242 56.5043 126.612 56.5043C125.985 56.5043 125.446 56.6555 124.995 56.9581C124.543 57.2607 124.196 57.706 123.953 58.294C123.714 58.8821 123.595 59.6023 123.595 60.4545C123.595 61.3068 123.714 62.027 123.953 62.6151C124.196 63.2031 124.543 63.6484 124.995 63.951C125.446 64.2536 125.985 64.4048 126.612 64.4048C127.242 64.4048 127.782 64.2536 128.229 63.951C128.681 63.6484 129.026 63.2031 129.264 62.6151C129.507 62.027 129.629 61.3068 129.629 60.4545ZM142.445 67V53.9091H145.609V64.4304H151.055V67H142.445ZM168.347 53.9091H171.505V62.353C171.505 63.3288 171.272 64.179 170.808 64.9034C170.343 65.6236 169.696 66.1818 168.865 66.5781C168.034 66.9702 167.069 67.1662 165.969 67.1662C164.857 67.1662 163.885 66.9702 163.054 66.5781C162.223 66.1818 161.578 65.6236 161.118 64.9034C160.657 64.179 160.427 63.3288 160.427 62.353V53.9091H163.591V62.0781C163.591 62.5298 163.689 62.9325 163.885 63.2862C164.086 63.6399 164.365 63.9169 164.723 64.1172C165.081 64.3175 165.496 64.4176 165.969 64.4176C166.442 64.4176 166.856 64.3175 167.209 64.1172C167.567 63.9169 167.846 63.6399 168.047 63.2862C168.247 62.9325 168.347 62.5298 168.347 62.0781V53.9091ZM180.794 56.4787V53.9091H191.859V56.4787H187.889V67H184.77V56.4787H180.794ZM204.302 53.9091V67H201.138V53.9091H204.302ZM226.379 60.4545C226.379 61.8949 226.102 63.1158 225.548 64.1172C224.994 65.1186 224.244 65.8793 223.298 66.3991C222.356 66.919 221.299 67.179 220.127 67.179C218.951 67.179 217.892 66.9169 216.951 66.3928C216.009 65.8686 215.261 65.108 214.707 64.1108C214.157 63.1094 213.882 61.8906 213.882 60.4545C213.882 59.0142 214.157 57.7933 214.707 56.7919C215.261 55.7905 216.009 55.0298 216.951 54.5099C217.892 53.9901 218.951 53.7301 220.127 53.7301C221.299 53.7301 222.356 53.9901 223.298 54.5099C224.244 55.0298 224.994 55.7905 225.548 56.7919C226.102 57.7933 226.379 59.0142 226.379 60.4545ZM223.144 60.4545C223.144 59.6023 223.023 58.8821 222.78 58.294C222.541 57.706 222.196 57.2607 221.745 56.9581C221.297 56.6555 220.758 56.5043 220.127 56.5043C219.501 56.5043 218.962 56.6555 218.51 56.9581C218.059 57.2607 217.711 57.706 217.468 58.294C217.23 58.8821 217.11 59.6023 217.11 60.4545C217.11 61.3068 217.23 62.027 217.468 62.6151C217.711 63.2031 218.059 63.6484 218.51 63.951C218.962 64.2536 219.501 64.4048 220.127 64.4048C220.758 64.4048 221.297 64.2536 221.745 63.951C222.196 63.6484 222.541 63.2031 222.78 62.6151C223.023 62.027 223.144 61.3068 223.144 60.4545ZM247.102 53.9091V67H244.417L239.208 59.4446H239.125V67H235.96V53.9091H238.684L243.835 61.4517H243.944V53.9091H247.102Z" fill="#001480"/>
<path d="M92.5681 38.1795V34.3741L105.995 15.9679H92.5816V10.5432H114.442V14.3486L101.016 32.7548H114.429V38.1795H92.5681ZM128.217 38.5709C126.049 38.5709 124.177 38.1436 122.603 37.2889C121.038 36.4253 119.832 35.1973 118.987 33.605C118.15 32.0036 117.732 30.1009 117.732 27.8969C117.732 25.7558 118.154 23.8846 119 22.2832C119.846 20.6729 121.038 19.4224 122.576 18.5318C124.114 17.6322 125.927 17.1824 128.014 17.1824C129.49 17.1824 130.839 17.4118 132.063 17.8706C133.286 18.3294 134.343 19.0086 135.234 19.9082C136.124 20.8078 136.817 21.9189 137.312 23.2413C137.807 24.5548 138.054 26.0616 138.054 27.7619V29.4082H120.039V25.5758H131.914C131.905 24.8741 131.739 24.2489 131.415 23.7001C131.091 23.1514 130.646 22.724 130.079 22.4182C129.521 22.1033 128.878 21.9459 128.149 21.9459C127.412 21.9459 126.75 22.1123 126.166 22.4452C125.581 22.769 125.118 23.2143 124.776 23.7811C124.434 24.3389 124.254 24.9731 124.236 25.6838V29.5837C124.236 30.4293 124.402 31.1715 124.735 31.8102C125.068 32.44 125.54 32.9302 126.152 33.2811C126.764 33.6319 127.493 33.8074 128.338 33.8074C128.923 33.8074 129.454 33.7264 129.931 33.5645C130.407 33.4025 130.817 33.1641 131.159 32.8493C131.5 32.5344 131.757 32.1476 131.928 31.6888L137.987 31.8642C137.735 33.2226 137.181 34.4056 136.327 35.4132C135.481 36.4118 134.37 37.19 132.994 37.7477C131.617 38.2965 130.025 38.5709 128.217 38.5709ZM148.023 26.3585V38.1795H141.424V17.4523H147.699V21.2577H147.929C148.387 19.9892 149.17 18.9951 150.277 18.2754C151.383 17.5467 152.701 17.1824 154.23 17.1824C155.688 17.1824 156.952 17.5107 158.022 18.1675C159.102 18.8152 159.939 19.7238 160.532 20.8933C161.135 22.0538 161.432 23.4123 161.423 24.9686V38.1795H154.824V26.2641C154.833 25.1125 154.541 24.2129 153.947 23.5652C153.362 22.9175 152.548 22.5936 151.505 22.5936C150.812 22.5936 150.2 22.7465 149.669 23.0524C149.148 23.3493 148.743 23.7766 148.455 24.3344C148.176 24.8921 148.032 25.5668 148.023 26.3585ZM180.447 18.8287C180.357 17.8391 179.956 17.0699 179.246 16.5212C178.544 15.9634 177.541 15.6845 176.236 15.6845C175.373 15.6845 174.653 15.797 174.077 16.0219C173.501 16.2468 173.07 16.5571 172.782 16.953C172.494 17.3398 172.345 17.7851 172.336 18.2889C172.318 18.7027 172.399 19.0671 172.579 19.3819C172.768 19.6968 173.038 19.9757 173.389 20.2186C173.749 20.4525 174.181 20.6594 174.684 20.8393C175.188 21.0193 175.755 21.1767 176.385 21.3116L178.76 21.8514C180.127 22.1483 181.333 22.5441 182.376 23.0389C183.429 23.5337 184.31 24.123 185.021 24.8067C185.741 25.4904 186.285 26.2775 186.654 27.1682C187.023 28.0588 187.212 29.0574 187.221 30.1639C187.212 31.9092 186.771 33.407 185.898 34.6575C185.026 35.908 183.771 36.8661 182.133 37.5318C180.505 38.1975 178.539 38.5304 176.236 38.5304C173.924 38.5304 171.909 38.184 170.191 37.4913C168.473 36.7986 167.137 35.7461 166.183 34.3337C165.229 32.9212 164.739 31.1355 164.712 28.9764H171.108C171.162 29.867 171.401 30.6092 171.824 31.203C172.246 31.7967 172.827 32.2465 173.564 32.5524C174.311 32.8583 175.175 33.0112 176.155 33.0112C177.055 33.0112 177.82 32.8898 178.449 32.6469C179.088 32.404 179.578 32.0666 179.92 31.6348C180.262 31.203 180.438 30.7082 180.447 30.1504C180.438 29.6286 180.276 29.1833 179.961 28.8145C179.646 28.4366 179.16 28.1128 178.503 27.8429C177.856 27.564 177.028 27.3076 176.02 27.0737L173.133 26.399C170.74 25.8502 168.855 24.9641 167.478 23.7406C166.102 22.5081 165.418 20.8438 165.427 18.7477C165.418 17.0384 165.877 15.5406 166.804 14.2541C167.73 12.9676 169.012 11.9646 170.65 11.2449C172.287 10.5252 174.154 10.1653 176.25 10.1653C178.391 10.1653 180.249 10.5297 181.823 11.2584C183.406 11.9781 184.634 12.9901 185.507 14.2946C186.38 15.599 186.825 17.1104 186.843 18.8287H180.447ZM194.629 45.9523C193.837 45.9523 193.091 45.8893 192.389 45.7633C191.687 45.6464 191.085 45.489 190.581 45.291L192.038 40.5006C192.686 40.7165 193.271 40.8424 193.792 40.8784C194.323 40.9144 194.777 40.8289 195.155 40.622C195.542 40.4241 195.839 40.0687 196.046 39.556L196.302 38.9352L188.934 17.4523H195.844L199.662 32.242H199.878L203.751 17.4523H210.701L202.888 40.1632C202.51 41.2967 201.974 42.2953 201.282 43.1589C200.598 44.0316 199.712 44.7153 198.623 45.2101C197.544 45.7049 196.212 45.9523 194.629 45.9523ZM219.83 26.3585V38.1795H213.231V17.4523H219.506V21.2577H219.735C220.194 19.9892 220.977 18.9951 222.083 18.2754C223.19 17.5467 224.508 17.1824 226.037 17.1824C227.494 17.1824 228.758 17.5107 229.829 18.1675C230.909 18.8152 231.745 19.7238 232.339 20.8933C232.942 22.0538 233.239 23.4123 233.23 24.9686V38.1795H226.631V26.2641C226.64 25.1125 226.347 24.2129 225.754 23.5652C225.169 22.9175 224.355 22.5936 223.311 22.5936C222.619 22.5936 222.007 22.7465 221.476 23.0524C220.954 23.3493 220.549 23.7766 220.261 24.3344C219.983 24.8921 219.839 25.5668 219.83 26.3585ZM246.99 38.5709C244.804 38.5709 242.929 38.1211 241.363 37.2214C239.807 36.3218 238.61 35.0713 237.774 33.47C236.937 31.8597 236.519 29.9975 236.519 27.8834C236.519 25.7603 236.937 23.898 237.774 22.2967C238.619 20.6864 239.82 19.4314 241.377 18.5318C242.942 17.6322 244.809 17.1824 246.977 17.1824C248.893 17.1824 250.562 17.5287 251.983 18.2214C253.414 18.9141 254.529 19.8947 255.33 21.1632C256.14 22.4227 256.567 23.9025 256.612 25.6028H250.445C250.319 24.5413 249.959 23.7091 249.365 23.1064C248.781 22.5036 248.016 22.2023 247.071 22.2023C246.307 22.2023 245.636 22.4182 245.061 22.85C244.485 23.2728 244.035 23.9025 243.711 24.7392C243.396 25.5668 243.239 26.5924 243.239 27.8159C243.239 29.0394 243.396 30.0739 243.711 30.9196C244.035 31.7562 244.485 32.3905 245.061 32.8223C245.636 33.2451 246.307 33.4565 247.071 33.4565C247.683 33.4565 248.223 33.3261 248.691 33.0652C249.167 32.8043 249.559 32.422 249.865 31.9182C250.171 31.4054 250.364 30.7846 250.445 30.056H256.612C256.549 31.7652 256.122 33.2586 255.33 34.5361C254.547 35.8135 253.445 36.8076 252.024 37.5183C250.611 38.22 248.934 38.5709 246.99 38.5709Z" fill="#FF5757"/>
<rect width="80" height="80" rx="15" fill="#FF5757"/>
<path d="M16.7198 62C16.7671 61.7633 16.9801 61.3137 17.3588 60.651C17.7374 59.941 18.3528 59.018 19.2048 57.882C20.1514 56.6513 21.3111 55.113 22.6838 53.267C24.1038 51.421 25.6421 49.4093 27.2988 47.232C28.9554 45.0073 30.6594 42.7353 32.4108 40.416C34.1621 38.0967 35.8661 35.8483 37.5228 33.671C39.2268 31.4463 40.7888 29.3873 42.2088 27.494V27.352H28.0798C25.0031 27.352 22.7311 27.6833 21.2638 28.346C19.8438 28.9613 19.0391 29.5767 18.8498 30.192V19.4H61.1658C61.0711 19.6367 60.7871 20.11 60.3138 20.82C59.8878 21.53 59.2724 22.382 58.4678 23.376C56.9058 25.4113 55.3438 27.4467 53.7818 29.482C52.2198 31.5173 50.6578 33.5527 49.0958 35.588C47.5338 37.576 45.9718 39.5877 44.4098 41.623C42.8478 43.6583 41.2858 45.6937 39.7238 47.729C38.1618 49.7643 36.5998 51.7997 35.0378 53.835V54.048H54.0658C56.7638 54.048 58.8701 53.7167 60.3848 53.054C61.9468 52.3913 62.9171 51.7523 63.2958 51.137L61.8758 59.799V62H16.7198Z" fill="white"/>
</svg>
