<svg width="500" height="500" viewBox="0 0 500 500" fill="none" xmlns="http://www.w3.org/2000/svg">
<rect width="500" height="500" fill="#090926"/>
<path d="M138.767 233.577C138.644 233.484 138.469 233.48 138.341 233.567L126.691 241.524C126.578 241.603 126.426 241.589 126.327 241.492L125.92 241.09C125.82 240.993 125.811 240.845 125.887 240.734L134.062 229.388C134.152 229.263 134.147 229.092 134.052 228.972L117.603 208L101.153 228.972C101.059 229.092 101.054 229.263 101.144 229.388L109.319 240.734C109.399 240.845 109.385 240.993 109.286 241.09L108.879 241.492C108.779 241.589 108.628 241.603 108.514 241.524L96.8647 233.567C96.7369 233.48 96.5617 233.484 96.4387 233.577L75 249.611L96.4387 265.645C96.5617 265.737 96.7369 265.742 96.8647 265.654L108.514 257.697C108.628 257.618 108.779 257.632 108.879 257.729L109.286 258.132C109.385 258.229 109.395 258.377 109.319 258.488L101.144 269.833C101.054 269.958 101.059 270.129 101.153 270.249L117.603 291.221L134.052 270.249C134.147 270.129 134.152 269.958 134.062 269.833L125.887 258.488C125.806 258.377 125.82 258.229 125.92 258.132L126.327 257.729C126.426 257.632 126.578 257.618 126.691 257.697L138.341 265.654C138.469 265.742 138.644 265.737 138.767 265.645L160.206 249.611L138.767 233.577ZM118.398 255.505C114.417 255.996 111.07 252.727 111.572 248.839C111.913 246.189 114.105 244.049 116.817 243.716C120.798 243.226 124.145 246.494 123.643 250.383C123.302 253.032 121.11 255.173 118.398 255.505Z" fill="white"/>
<path d="M206.662 259.778L208.925 266.713H184.551V232.037H192.158V259.778H206.662Z" fill="white"/>
<path d="M214.912 249.61C214.912 256.443 218.818 261.002 224.649 261.002C230.481 261.002 234.387 256.443 234.387 249.61C234.387 242.776 230.481 238.218 224.649 238.218C218.818 238.218 214.912 242.776 214.912 249.61ZM207.05 249.61C207.05 238.911 214.098 231.777 224.649 231.777C235.201 231.777 242.249 238.911 242.249 249.61C242.249 260.308 235.201 267.442 224.649 267.442C214.098 267.442 207.05 260.308 207.05 249.61Z" fill="white"/>
<path d="M240.056 232.273H268.704V239.208H259.312V266.948H251.705V239.208H242.318L240.056 232.273Z" fill="white"/>
<path d="M300.136 232.273H271.488V239.208H280.88V266.948H288.487V239.208H297.874L300.136 232.273Z" fill="white"/>
<path d="M306.022 249.61C306.022 256.443 309.927 261.002 315.759 261.002C321.591 261.002 325.496 256.443 325.496 249.61C325.496 242.776 321.591 238.218 315.759 238.218C309.927 238.218 306.022 242.776 306.022 249.61ZM298.16 249.61C298.16 238.911 305.208 231.777 315.759 231.777C326.311 231.777 333.359 238.911 333.359 249.61C333.359 260.308 326.311 267.442 315.759 267.442C305.208 267.442 298.16 260.308 298.16 249.61Z" fill="white"/>
<path d="M343.071 238.81V260.406H347.587C353.571 260.406 359 257.78 359 249.606C359 241.432 353.575 238.806 347.587 238.806H343.071V238.81ZM335.464 266.948V232.273H348.345C358.536 232.273 366.853 237.77 366.853 249.611C366.853 261.451 358.536 266.948 348.345 266.948H335.464Z" fill="white"/>
<path d="M389.517 252.829C388.655 250.203 388.044 248.469 387.031 246.139L383.988 239.203H383.784L380.74 246.139C379.727 248.469 379.117 250.203 378.203 252.829H389.512H389.517ZM368.419 266.944V265.46C368.419 258.275 371.108 250.105 373.995 243.517L378.965 232.273H388.958L393.928 243.517C397.327 251.243 399.505 258.28 399.505 265.46V266.944H391.898V265.46C391.898 263.379 391.694 261.35 391.287 259.366H376.376C376.021 261.35 375.77 263.379 375.77 265.46V266.944H368.414H368.419Z" fill="white"/>
<path d="M403.391 232.273V233.364C403.391 237.775 405.014 240.896 407.348 244.312L410.595 249.116L413.843 244.211C416.479 240.248 417.696 237.77 417.696 233.364V232.273H425V233.364C425 240.396 422.463 244.409 418.912 249.412L414.198 256.051V266.948H406.591V256.051L401.876 249.412C398.326 244.409 395.789 240.396 395.789 233.364V232.273H403.396H403.391Z" fill="white"/>
</svg>
