<svg width="610" height="363" viewBox="0 0 610 363" fill="none" xmlns="http://www.w3.org/2000/svg">
<rect width="610" height="362.296" fill="#EFEFEF"/>
<path d="M59.4 199V197.92L63.06 197.26C64.7 196.94 65.74 196.58 66.18 196.18C66.66 195.78 66.9 194.96 66.9 193.72V163.9C66.9 162.62 66.66 161.78 66.18 161.38C65.74 160.98 64.7 160.64 63.06 160.36L59.4 159.7V158.62H93.54C93.42 159.18 93.32 159.74 93.24 160.3C93.2 160.86 93.18 161.42 93.18 161.98C93.18 163.46 93.3 164.84 93.54 166.12C93.82 167.36 94.02 168.4 94.14 169.24H92.94C92.7 168.36 92.32 167.4 91.8 166.36C91.32 165.32 90.7 164.32 89.94 163.36C89.18 162.4 88.26 161.62 87.18 161.02C86.14 160.38 84.94 160.06 83.58 160.06H72.36V178.06H80.4C81.64 178.06 82.74 178 83.7 177.88C84.7 177.72 85.54 177.32 86.22 176.68C86.9 176.04 87.36 174.94 87.6 173.38L88.08 170.56H89.16V187.12L88.08 187.18L87.6 184.54C87.32 182.94 86.82 181.82 86.1 181.18C85.38 180.5 84.52 180.1 83.52 179.98C82.56 179.82 81.5 179.74 80.34 179.74H72.3V193.72C72.3 194.96 72.52 195.8 72.96 196.24C73.44 196.64 74.5 196.98 76.14 197.26L80.1 197.92V199H59.4ZM138.693 199.78C136.653 199.78 134.893 199.34 133.413 198.46C131.973 197.58 130.653 196.44 129.453 195.04C128.293 193.6 127.113 192.12 125.913 190.6C124.713 189 123.553 187.46 122.433 185.98C121.353 184.5 120.093 183.3 118.653 182.38C117.213 181.42 115.353 180.94 113.073 180.94H110.913V193.72C110.913 194.96 111.133 195.78 111.573 196.18C112.053 196.58 113.113 196.94 114.753 197.26L118.413 197.92V199H98.0133V197.92L101.673 197.26C103.313 196.94 104.353 196.58 104.793 196.18C105.273 195.78 105.513 194.96 105.513 193.72V163.9C105.513 162.62 105.273 161.78 104.793 161.38C104.353 160.98 103.313 160.64 101.673 160.36L98.0133 159.7V158.62H114.813C120.213 158.62 124.373 159.64 127.293 161.68C130.213 163.68 131.673 166.38 131.673 169.78C131.673 171.62 131.173 173.26 130.173 174.7C129.173 176.1 127.833 177.24 126.153 178.12C124.513 178.96 122.713 179.5 120.753 179.74V179.92C122.593 179.92 124.153 180.4 125.433 181.36C126.713 182.28 127.853 183.46 128.853 184.9C129.893 186.34 130.953 187.86 132.033 189.46C133.073 190.94 134.113 192.36 135.153 193.72C136.193 195.04 137.253 196.12 138.333 196.96C139.453 197.8 140.593 198.22 141.753 198.22V199.3C140.793 199.62 139.773 199.78 138.693 199.78ZM110.913 179.26H114.813C117.173 179.26 119.153 178.88 120.753 178.12C122.393 177.36 123.633 176.3 124.473 174.94C125.353 173.54 125.793 171.9 125.793 170.02C125.793 166.74 124.733 164.26 122.613 162.58C120.533 160.86 117.673 160 114.033 160H110.913V179.26ZM142.378 199V197.92L145.198 197.44C146.558 197.2 147.598 196.82 148.318 196.3C149.038 195.74 149.598 194.96 149.998 193.96L162.178 164.2L160.918 160.9C161.758 160.86 162.458 160.62 163.018 160.18C163.578 159.7 163.998 159.18 164.278 158.62C164.558 158.02 164.698 157.52 164.698 157.12H165.238L179.878 192.58C180.598 194.34 181.338 195.54 182.098 196.18C182.898 196.78 183.918 197.2 185.158 197.44L187.558 197.92V199H167.818V197.92L171.058 197.38C172.338 197.18 173.218 196.94 173.698 196.66C174.178 196.38 174.418 196 174.418 195.52C174.418 195.2 174.338 194.82 174.178 194.38C174.018 193.94 173.838 193.44 173.638 192.88L162.658 165.16H164.038L152.098 194.08C151.978 194.36 151.878 194.64 151.798 194.92C151.718 195.16 151.678 195.38 151.678 195.58C151.678 196.06 151.858 196.42 152.218 196.66C152.618 196.9 153.178 197.08 153.898 197.2L157.798 197.92V199H142.378ZM155.698 185.26L155.278 183.34H172.858V185.26H155.698ZM215.2 199.54L200.5 164.2L199.12 193.66C199.08 194.9 199.3 195.72 199.78 196.12C200.26 196.52 201.32 196.88 202.96 197.2L206.68 197.92V199H189.94V197.92L193.6 197.2C194.72 196.96 195.54 196.74 196.06 196.54C196.58 196.3 196.92 195.98 197.08 195.58C197.28 195.14 197.4 194.5 197.44 193.66L198.7 164.26C198.78 162.98 198.56 162.06 198.04 161.5C197.52 160.94 196.46 160.5 194.86 160.18L192.34 159.7V158.62H203.86L217.24 189.88L230.32 158.62H242.56V159.7L238.96 160.3C237.36 160.58 236.3 160.98 235.78 161.5C235.3 162.02 235.08 162.96 235.12 164.32L235.9 193.72C235.94 194.56 236.04 195.2 236.2 195.64C236.36 196.08 236.72 196.42 237.28 196.66C237.84 196.86 238.66 197.06 239.74 197.26L243.4 197.92V199H224.2V197.92L228.4 197.14C229.2 196.98 229.72 196.76 229.96 196.48C230.2 196.2 230.32 195.74 230.32 195.1L229.72 165.34L215.62 199.54H215.2ZM247.896 199V197.92L251.556 197.26C253.196 196.94 254.236 196.58 254.676 196.18C255.156 195.78 255.396 194.96 255.396 193.72V163.9C255.396 162.62 255.156 161.78 254.676 161.38C254.236 160.98 253.196 160.64 251.556 160.36L247.896 159.7V158.62H282.036C281.916 159.18 281.816 159.74 281.736 160.3C281.696 160.86 281.676 161.42 281.676 161.98C281.676 163.46 281.796 164.84 282.036 166.12C282.316 167.36 282.516 168.4 282.636 169.24H281.436C280.836 167.48 280.136 165.92 279.336 164.56C278.576 163.16 277.556 162.06 276.276 161.26C274.996 160.46 273.336 160.06 271.296 160.06H260.856V176.86H270.396C272.476 176.86 273.856 176.5 274.536 175.78C275.256 175.06 275.776 173.86 276.096 172.18L276.636 169.36H277.716V186.04H276.636L276.096 183.22C275.776 181.54 275.256 180.34 274.536 179.62C273.856 178.9 272.476 178.54 270.396 178.54H260.856V193.6C260.856 194.56 260.976 195.34 261.216 195.94C261.456 196.5 261.916 196.9 262.596 197.14C263.276 197.38 264.256 197.5 265.536 197.5H271.056C272.696 197.5 274.216 197.18 275.616 196.54C277.016 195.9 278.216 195.1 279.216 194.14C280.256 193.14 281.016 192.18 281.496 191.26L283.056 188.2H284.196C283.676 190.04 283.296 191.92 283.056 193.84C282.816 195.72 282.676 197.44 282.636 199H247.896ZM288.97 199V197.92L292.63 197.26C294.27 196.94 295.31 196.58 295.75 196.18C296.23 195.78 296.47 194.96 296.47 193.72V163.9C296.47 162.62 296.23 161.78 295.75 161.38C295.31 160.98 294.27 160.64 292.63 160.36L288.97 159.7V158.62H308.65C311.41 158.62 313.79 159.02 315.79 159.82C317.83 160.58 319.39 161.66 320.47 163.06C321.59 164.46 322.15 166.1 322.15 167.98C322.15 170.5 321.21 172.42 319.33 173.74C317.49 175.06 315.15 175.98 312.31 176.5V176.62C314.19 176.86 316.05 177.38 317.89 178.18C319.77 178.98 321.31 180.12 322.51 181.6C323.75 183.04 324.37 184.88 324.37 187.12C324.37 189.8 323.61 192.02 322.09 193.78C320.57 195.54 318.53 196.86 315.97 197.74C313.41 198.58 310.57 199 307.45 199H288.97ZM306.25 197.56H307.69C309.53 197.56 311.23 197.18 312.79 196.42C314.39 195.62 315.69 194.48 316.69 193C317.69 191.48 318.19 189.68 318.19 187.6C318.19 185.72 317.77 184.04 316.93 182.56C316.09 181.04 314.89 179.84 313.33 178.96C311.77 178.04 309.89 177.58 307.69 177.58H301.81V193.6C301.81 194.92 302.11 195.9 302.71 196.54C303.31 197.18 304.49 197.52 306.25 197.56ZM301.81 176.02H308.05C310.69 176.02 312.77 175.24 314.29 173.68C315.81 172.12 316.57 170.28 316.57 168.16C316.57 165.56 315.79 163.56 314.23 162.16C312.71 160.76 310.49 160.06 307.57 160.06H301.81V176.02ZM327.066 199V197.92L329.886 197.44C331.246 197.2 332.286 196.82 333.006 196.3C333.726 195.74 334.286 194.96 334.686 193.96L346.866 164.2L345.606 160.9C346.446 160.86 347.146 160.62 347.706 160.18C348.266 159.7 348.686 159.18 348.966 158.62C349.246 158.02 349.386 157.52 349.386 157.12H349.926L364.566 192.58C365.286 194.34 366.026 195.54 366.786 196.18C367.586 196.78 368.606 197.2 369.846 197.44L372.246 197.92V199H352.506V197.92L355.746 197.38C357.026 197.18 357.906 196.94 358.386 196.66C358.866 196.38 359.106 196 359.106 195.52C359.106 195.2 359.026 194.82 358.866 194.38C358.706 193.94 358.526 193.44 358.326 192.88L347.346 165.16H348.726L336.786 194.08C336.666 194.36 336.566 194.64 336.486 194.92C336.406 195.16 336.366 195.38 336.366 195.58C336.366 196.06 336.546 196.42 336.906 196.66C337.306 196.9 337.866 197.08 338.586 197.2L342.486 197.92V199H327.066ZM340.386 185.26L339.966 183.34H357.546V185.26H340.386ZM374.327 199V198.34L402.467 160.06H389.027C386.947 160.06 385.207 160.42 383.807 161.14C382.407 161.82 381.227 162.88 380.267 164.32C379.307 165.72 378.407 167.5 377.567 169.66H376.427C376.707 168.42 376.927 167.12 377.087 165.76C377.247 164.4 377.327 163.06 377.327 161.74C377.327 161.22 377.287 160.7 377.207 160.18C377.167 159.66 377.107 159.14 377.027 158.62H409.727V159.28L381.827 197.5H396.527C398.647 197.5 400.587 197.06 402.347 196.18C404.147 195.3 405.707 194.14 407.027 192.7C408.347 191.22 409.327 189.58 409.967 187.78H411.167C410.687 189.74 410.307 191.64 410.027 193.48C409.787 195.28 409.667 197.12 409.667 199H374.327ZM412.964 199V197.92L415.784 197.44C417.144 197.2 418.184 196.82 418.904 196.3C419.624 195.74 420.184 194.96 420.584 193.96L432.764 164.2L431.504 160.9C432.344 160.86 433.044 160.62 433.604 160.18C434.164 159.7 434.584 159.18 434.864 158.62C435.144 158.02 435.284 157.52 435.284 157.12H435.824L450.464 192.58C451.184 194.34 451.924 195.54 452.684 196.18C453.484 196.78 454.504 197.2 455.744 197.44L458.144 197.92V199H438.404V197.92L441.644 197.38C442.924 197.18 443.804 196.94 444.284 196.66C444.764 196.38 445.004 196 445.004 195.52C445.004 195.2 444.924 194.82 444.764 194.38C444.604 193.94 444.424 193.44 444.224 192.88L433.244 165.16H434.624L422.684 194.08C422.564 194.36 422.464 194.64 422.384 194.92C422.304 195.16 422.264 195.38 422.264 195.58C422.264 196.06 422.444 196.42 422.804 196.66C423.204 196.9 423.764 197.08 424.484 197.2L428.384 197.92V199H412.964ZM426.284 185.26L425.864 183.34H443.444V185.26H426.284ZM458.726 199V197.92L461.546 197.44C462.906 197.2 463.946 196.82 464.666 196.3C465.386 195.74 465.946 194.96 466.346 193.96L478.526 164.2L477.266 160.9C478.106 160.86 478.806 160.62 479.366 160.18C479.926 159.7 480.346 159.18 480.626 158.62C480.906 158.02 481.046 157.52 481.046 157.12H481.586L496.226 192.58C496.946 194.34 497.686 195.54 498.446 196.18C499.246 196.78 500.266 197.2 501.506 197.44L503.906 197.92V199H484.166V197.92L487.406 197.38C488.686 197.18 489.566 196.94 490.046 196.66C490.526 196.38 490.766 196 490.766 195.52C490.766 195.2 490.686 194.82 490.526 194.38C490.366 193.94 490.186 193.44 489.986 192.88L479.006 165.16H480.386L468.446 194.08C468.326 194.36 468.226 194.64 468.146 194.92C468.066 195.16 468.026 195.38 468.026 195.58C468.026 196.06 468.206 196.42 468.566 196.66C468.966 196.9 469.526 197.08 470.246 197.2L474.146 197.92V199H458.726ZM472.046 185.26L471.626 183.34H489.206V185.26H472.046ZM547.268 199.78C545.228 199.78 543.468 199.34 541.988 198.46C540.548 197.58 539.228 196.44 538.028 195.04C536.868 193.6 535.688 192.12 534.487 190.6C533.288 189 532.128 187.46 531.008 185.98C529.928 184.5 528.668 183.3 527.228 182.38C525.788 181.42 523.928 180.94 521.648 180.94H519.488V193.72C519.488 194.96 519.708 195.78 520.148 196.18C520.628 196.58 521.688 196.94 523.328 197.26L526.988 197.92V199H506.588V197.92L510.248 197.26C511.888 196.94 512.928 196.58 513.368 196.18C513.848 195.78 514.088 194.96 514.088 193.72V163.9C514.088 162.62 513.848 161.78 513.368 161.38C512.928 160.98 511.888 160.64 510.248 160.36L506.588 159.7V158.62H523.388C528.788 158.62 532.948 159.64 535.867 161.68C538.788 163.68 540.248 166.38 540.248 169.78C540.248 171.62 539.748 173.26 538.748 174.7C537.748 176.1 536.408 177.24 534.728 178.12C533.088 178.96 531.288 179.5 529.328 179.74V179.92C531.168 179.92 532.728 180.4 534.008 181.36C535.288 182.28 536.428 183.46 537.428 184.9C538.468 186.34 539.528 187.86 540.608 189.46C541.648 190.94 542.688 192.36 543.728 193.72C544.768 195.04 545.828 196.12 546.908 196.96C548.028 197.8 549.168 198.22 550.328 198.22V199.3C549.368 199.62 548.348 199.78 547.268 199.78ZM519.488 179.26H523.388C525.748 179.26 527.728 178.88 529.328 178.12C530.968 177.36 532.208 176.3 533.048 174.94C533.928 173.54 534.368 171.9 534.368 170.02C534.368 166.74 533.308 164.26 531.188 162.58C529.108 160.86 526.248 160 522.608 160H519.488V179.26Z" fill="#050505"/>
</svg>
