<svg width="80" height="80" viewBox="0 0 80 80" fill="none" xmlns="http://www.w3.org/2000/svg">
<rect width="80" height="80" rx="15" fill="#FF5757"/>
<path d="M16.7198 62C16.7671 61.7633 16.9801 61.3137 17.3588 60.651C17.7374 59.941 18.3528 59.018 19.2048 57.882C20.1514 56.6513 21.3111 55.113 22.6838 53.267C24.1038 51.421 25.6421 49.4093 27.2988 47.232C28.9554 45.0073 30.6594 42.7353 32.4108 40.416C34.1621 38.0967 35.8661 35.8483 37.5228 33.671C39.2268 31.4463 40.7888 29.3873 42.2088 27.494V27.352H28.0798C25.0031 27.352 22.7311 27.6833 21.2638 28.346C19.8438 28.9613 19.0391 29.5767 18.8498 30.192V19.4H61.1658C61.0711 19.6367 60.7871 20.11 60.3138 20.82C59.8878 21.53 59.2724 22.382 58.4678 23.376C56.9058 25.4113 55.3438 27.4467 53.7818 29.482C52.2198 31.5173 50.6578 33.5527 49.0958 35.588C47.5338 37.576 45.9718 39.5877 44.4098 41.623C42.8478 43.6583 41.2858 45.6937 39.7238 47.729C38.1618 49.7643 36.5998 51.7997 35.0378 53.835V54.048H54.0658C56.7638 54.048 58.8701 53.7167 60.3848 53.054C61.9468 52.3913 62.9171 51.7523 63.2958 51.137L61.8758 59.799V62H16.7198Z" fill="white"/>
</svg>
