<svg width="400" height="400" viewBox="0 0 400 400" fill="none" xmlns="http://www.w3.org/2000/svg">
<rect width="400" height="400" fill="#101B21"/>
<g clip-path="url(#clip0_2006_898)">
<path d="M71.7182 187.505V199.326C71.7182 201.018 71.9593 202.079 72.4684 202.483C72.9774 202.887 74.1295 203.115 75.9783 203.115H79.1935V208.823H73.5669C70.2177 208.823 67.6992 208.166 66.0112 206.878C64.3232 205.59 63.4658 203.266 63.4658 199.907V187.53H58V181.493H63.4926V170.631L71.7182 170V181.468H79.1935V187.505H71.7182Z" fill="#E5FF02"/>
<path d="M112.283 207.914H104.942L106.174 201.927L104.674 201.523C103.95 203.67 102.637 205.413 100.762 206.777C98.8863 208.141 96.6624 208.798 94.1171 208.798C91.0627 208.798 88.4905 207.838 86.4274 205.893C84.3643 203.948 83.3462 201.574 83.3462 198.745V181.468H91.7057V198.139C91.7057 199.73 92.2416 200.993 93.3401 201.927C94.4386 202.862 95.9122 203.342 97.7342 203.342C99.5561 203.342 101.057 202.862 102.235 201.877C103.414 200.892 103.977 199.629 103.977 198.038V181.493H112.283V207.939V207.914Z" fill="#E5FF02"/>
<path d="M146.927 190.637L138.969 191.596C138.433 189.904 137.549 188.591 136.317 187.681C135.111 186.747 133.611 186.292 131.816 186.292C129.431 186.292 127.582 186.999 126.269 188.439C124.93 189.879 124.287 191.9 124.287 194.527C124.287 197.153 124.956 199.25 126.269 200.69C127.582 202.13 129.458 202.837 131.816 202.837C133.691 202.837 135.272 202.332 136.585 201.321C137.898 200.311 138.728 198.871 139.077 197.027L147.168 197.987C146.391 201.422 144.596 204.074 141.809 205.969C139.023 207.863 135.674 208.823 131.789 208.823C126.939 208.823 123.081 207.56 120.187 205.06C117.294 202.559 115.874 199.048 115.874 194.527C115.874 190.005 117.32 186.57 120.187 184.069C123.081 181.594 126.939 180.331 131.789 180.331C135.272 180.331 138.353 181.215 141.059 183.008C143.765 184.802 145.694 187.328 146.9 190.611L146.927 190.637Z" fill="#E5FF02"/>
<path d="M158.85 181.695L156.733 189.551L158.046 189.955C158.635 187.555 159.895 185.56 161.824 183.994C163.753 182.427 166.084 181.644 168.817 181.644C171.845 181.644 174.363 182.655 176.426 184.65C178.489 186.646 179.507 189.096 179.507 192.001V208.823H171.201V192.607C171.201 191.066 170.639 189.828 169.514 188.919C168.388 187.984 166.941 187.53 165.146 187.53C163.351 187.53 161.797 188.01 160.618 188.97C159.439 189.929 158.823 191.192 158.823 192.733V208.823H150.517V170H158.823V181.695H158.85Z" fill="#E5FF02"/>
<path d="M190.894 196.623C191.082 198.694 191.859 200.286 193.225 201.372C194.592 202.458 196.467 203.014 198.852 203.014C200.647 203.014 202.121 202.635 203.353 201.902C204.559 201.17 205.336 200.159 205.658 198.871L213.749 199.882C212.972 202.711 211.257 204.933 208.578 206.55C205.899 208.166 202.657 208.975 198.879 208.975C193.761 208.975 189.742 207.712 186.822 205.161C183.928 202.609 182.455 199.124 182.455 194.678C182.455 190.233 183.848 186.848 186.634 184.322C189.421 181.796 193.252 180.508 198.102 180.508C202.951 180.508 206.783 181.771 209.569 184.322C212.356 186.873 213.749 190.207 213.749 194.35V196.598H190.894V196.623ZM191.028 192.001H205.309C205.309 190.384 204.613 189.045 203.246 188.01C201.88 186.974 200.165 186.469 198.102 186.469C196.039 186.469 194.485 186.949 193.252 187.909C192.047 188.869 191.296 190.233 191.028 192.001Z" fill="#E5FF02"/>
<path d="M216.08 181.089H242.07V189.778L228.566 199.351L224.386 201.675V202.458H242.07V208.47H216.08V199.376L230.013 189.626L233.63 187.833V187.05H216.08V181.114V181.089Z" fill="#E5FF02"/>
<path d="M252.198 196.623C252.385 198.694 253.162 200.286 254.529 201.372C255.895 202.458 257.771 203.014 260.155 203.014C261.95 203.014 263.424 202.635 264.657 201.902C265.862 201.17 266.639 200.159 266.961 198.871L275.052 199.882C274.275 202.711 272.561 204.933 269.881 206.55C267.202 208.166 263.96 208.975 260.182 208.975C255.065 208.975 251.046 207.712 248.125 205.161C245.231 202.609 243.758 199.124 243.758 194.678C243.758 190.233 245.151 186.848 247.938 184.322C250.724 181.796 254.555 180.508 259.405 180.508C264.255 180.508 268.086 181.771 270.873 184.322C273.659 186.873 275.052 190.207 275.052 194.35V196.598H252.198V196.623ZM252.332 192.001H266.612C266.612 190.384 265.916 189.045 264.549 188.01C263.183 186.974 261.468 186.469 259.405 186.469C257.342 186.469 255.788 186.949 254.555 187.909C253.35 188.869 252.6 190.233 252.332 192.001Z" fill="#E5FF02"/>
<path d="M278.321 207.661C277.866 207.333 277.651 206.904 277.651 206.373C277.651 205.843 277.866 205.439 278.321 205.085C278.777 204.731 279.313 204.554 279.982 204.554C280.652 204.554 281.188 204.731 281.644 205.085C282.099 205.439 282.313 205.868 282.313 206.373C282.313 206.878 282.099 207.308 281.644 207.661C281.188 207.99 280.652 208.166 279.982 208.166C279.313 208.166 278.777 207.99 278.321 207.661Z" fill="#E5FF02"/>
<path d="M299.488 199.73L295.389 200.21C295.094 199.376 294.665 198.745 294.022 198.29C293.406 197.835 292.629 197.608 291.718 197.608C290.485 197.608 289.548 197.962 288.851 198.644C288.154 199.326 287.833 200.336 287.833 201.624C287.833 202.913 288.181 203.923 288.851 204.63C289.521 205.337 290.485 205.666 291.718 205.666C292.682 205.666 293.513 205.413 294.183 204.933C294.853 204.453 295.281 203.746 295.469 202.837L299.649 203.317C299.247 204.984 298.336 206.297 296.889 207.207C295.442 208.141 293.727 208.596 291.745 208.596C289.253 208.596 287.27 207.99 285.77 206.752C284.296 205.54 283.546 203.822 283.546 201.624C283.546 199.427 284.296 197.734 285.77 196.522C287.243 195.31 289.253 194.703 291.745 194.703C293.54 194.703 295.121 195.133 296.514 196.017C297.907 196.901 298.898 198.113 299.515 199.73H299.488Z" fill="#E5FF02"/>
<path d="M300.453 201.624C300.453 199.427 301.176 197.734 302.623 196.522C304.07 195.31 306.026 194.703 308.491 194.703C310.795 194.703 312.724 195.31 314.251 196.547C315.778 197.785 316.555 199.477 316.555 201.624C316.555 203.771 315.832 205.54 314.358 206.752C312.885 207.964 310.929 208.596 308.491 208.596C306.052 208.596 304.07 207.99 302.623 206.752C301.176 205.514 300.453 203.822 300.453 201.624ZM304.74 201.624C304.74 202.938 305.061 203.923 305.731 204.63C306.401 205.337 307.312 205.666 308.491 205.666C309.67 205.666 310.58 205.312 311.25 204.63C311.92 203.923 312.242 202.938 312.242 201.624C312.242 200.311 311.92 199.351 311.25 198.644C310.58 197.937 309.67 197.608 308.491 197.608C307.312 197.608 306.401 197.962 305.731 198.644C305.061 199.351 304.74 200.336 304.74 201.624Z" fill="#E5FF02"/>
<path d="M318.056 195.335H322.316L321.244 198.619L322.316 198.922V208.015H318.056V195.335ZM328.371 200.311C328.371 199.477 328.13 198.821 327.621 198.366C327.112 197.911 326.415 197.659 325.477 197.659C324.513 197.659 323.736 197.911 323.173 198.391C322.611 198.896 322.316 199.553 322.316 200.387H321.673C321.673 198.694 322.155 197.356 323.12 196.32C324.084 195.31 325.37 194.779 327.005 194.779C328.184 194.779 329.228 195.183 330.139 195.966C331.05 196.749 331.506 197.684 331.506 198.72V198.846L332.631 199.098V208.015H328.317V200.311H328.371ZM338.686 200.311C338.686 199.477 338.419 198.821 337.909 198.366C337.4 197.886 336.623 197.659 335.605 197.659C334.694 197.659 333.971 197.911 333.462 198.391C332.953 198.896 332.685 199.553 332.685 200.387H332.015C332.015 198.669 332.524 197.33 333.542 196.32C334.56 195.31 335.954 194.804 337.722 194.804C339.303 194.804 340.589 195.31 341.553 196.295C342.518 197.28 343.027 198.543 343.027 200.033V208.04H338.713V200.336L338.686 200.311Z" fill="#E5FF02"/>
</g>
<defs>
<clipPath id="clip0_2006_898">
<rect width="285" height="39" fill="white" transform="translate(58 170)"/>
</clipPath>
</defs>
</svg>
